<svg xmlns="http://www.w3.org/2000/svg" width="13.394" height="18.635" viewBox="0 0 13.394 18.635"><defs><style>.a{fill:#7fbcf3;}</style></defs><path class="a" d="M84.084,0H73.31A1.312,1.312,0,0,0,72,1.31V17.325a1.312,1.312,0,0,0,1.31,1.31H84.084a1.312,1.312,0,0,0,1.31-1.31V1.31A1.312,1.312,0,0,0,84.084,0Zm-8.3,6.7h5.824a.582.582,0,0,1,0,1.165H75.785a.582.582,0,0,1,0-1.165ZM75.2,10.191a.582.582,0,0,1,.582-.582h5.824a.582.582,0,0,1,0,1.165H75.785A.582.582,0,0,1,75.2,10.191Zm6.7,5.241H80.735a.582.582,0,0,1,0-1.165H81.9a.582.582,0,0,1,0,1.165Z" transform="translate(-72)"/></svg>