<svg xmlns="http://www.w3.org/2000/svg" width="16.351" height="14.989" viewBox="0 0 16.351 14.989"><defs><style>.a{fill:#f6d58a;}</style></defs><g transform="translate(0 -0.492)"><path class="a" d="M4.258,155.575a2.551,2.551,0,0,1-2.413-1.738l-.024-.078a2.487,2.487,0,0,1-.118-.739v-4.645L.05,153.892a1.547,1.547,0,0,0,1.085,1.877l10.535,2.821a1.562,1.562,0,0,0,.392.05,1.519,1.519,0,0,0,1.472-1.114l.614-1.952Zm0,0" transform="translate(0 -143.16)"/><path class="a" d="M150.683,67.217a1.363,1.363,0,1,0-1.363-1.363A1.364,1.364,0,0,0,150.683,67.217Zm0,0" transform="translate(-144.551 -61.956)"/><path class="a" d="M97.243.492H87.023a1.706,1.706,0,0,0-1.7,1.7V9.69a1.706,1.706,0,0,0,1.7,1.7h10.22a1.706,1.706,0,0,0,1.7-1.7V2.2a1.706,1.706,0,0,0-1.7-1.7ZM87.023,1.855h10.22a.341.341,0,0,1,.341.341V7.032L95.431,4.521a1.22,1.22,0,0,0-.914-.419,1.191,1.191,0,0,0-.91.43l-2.53,3.037-.824-.822a1.2,1.2,0,0,0-1.69,0l-1.88,1.88V2.2A.341.341,0,0,1,87.023,1.855Zm0,0" transform="translate(-82.595 0)"/></g></svg>