<svg xmlns="http://www.w3.org/2000/svg" width="60" height="37.5" viewBox="0 0 60 37.5">
  <path id="Icon_awesome-mobile-alt" data-name="Icon awesome-mobile-alt" d="M31.875,0H5.625A5.626,5.626,0,0,0,0,5.625v48.75A5.626,5.626,0,0,0,5.625,60h26.25A5.626,5.626,0,0,0,37.5,54.375V5.625A5.626,5.626,0,0,0,31.875,0ZM18.75,56.25A3.75,3.75,0,1,1,22.5,52.5,3.746,3.746,0,0,1,18.75,56.25ZM31.875,43.594A1.41,1.41,0,0,1,30.469,45H7.031a1.41,1.41,0,0,1-1.406-1.406V7.031A1.41,1.41,0,0,1,7.031,5.625H30.469a1.41,1.41,0,0,1,1.406,1.406Z" transform="translate(60) rotate(90)" fill="#fff"/>
</svg>
