<svg xmlns="http://www.w3.org/2000/svg" width="21.997" height="21.998" viewBox="0 0 21.997 21.998">
  <path id="filter" d="M21.638,0H1.359A.859.859,0,0,0,.5.859,8.393,8.393,0,0,0,3.314,7.127l3.763,3.345A3.062,3.062,0,0,1,8.1,12.758v8.38a.86.86,0,0,0,1.336.715l5.07-3.38a.86.86,0,0,0,.383-.715v-5a3.062,3.062,0,0,1,1.027-2.287l3.763-3.345A8.393,8.393,0,0,0,22.5.859.859.859,0,0,0,21.638,0Zm-3.1,5.842L14.778,9.187a4.782,4.782,0,0,0-1.6,3.571V17.3L9.823,19.532V12.758a4.782,4.782,0,0,0-1.6-3.571L4.456,5.842A6.675,6.675,0,0,1,2.274,1.718H20.723a6.673,6.673,0,0,1-2.182,4.124Zm0,0" transform="translate(-0.5 0)" fill="#202631"/>
</svg>
