<svg xmlns="http://www.w3.org/2000/svg" width="40.143" height="35.906" viewBox="0 0 40.143 35.906">
  <g id="clothes" transform="translate(0.001 -2.118)">
    <g id="Group_1" data-name="Group 1">
      <path id="Path_1" data-name="Path 1" d="M29.248,4.118l-.5.5v-.5H26.273a7.346,7.346,0,0,1-6.2,2.914,7.345,7.345,0,0,1-6.2-2.914H11.4v.5l-.5-.5L2,13.017l4.865,4.869L11.4,13.352V36.024H28.744V13.353l4.533,4.534,4.864-4.87Z" fill="#fff"/>
      <path id="Path_2" data-name="Path 2" d="M28.744,38.024H11.4a2,2,0,0,1-2-2V18.182L8.279,19.3a2,2,0,0,1-1.415.586h0A2,2,0,0,1,5.449,19.3L.584,14.431a2,2,0,0,1,0-2.828l8.9-8.9a2.018,2.018,0,0,1,1.665-.57,2.1,2.1,0,0,1,.252-.016H13.87a2,2,0,0,1,1.679.913,5.4,5.4,0,0,0,4.522,2,5.4,5.4,0,0,0,4.523-2,2,2,0,0,1,1.679-.913h2.473A1.916,1.916,0,0,1,29,2.134a2.055,2.055,0,0,1,.249-.016h0a2,2,0,0,1,1.415.586l8.894,8.9a2,2,0,0,1,0,2.828L34.693,19.3a2,2,0,0,1-1.414.586h0a2,2,0,0,1-1.414-.585l-1.119-1.12V36.024A2,2,0,0,1,28.744,38.024Zm-15.347-4H26.744V13.353a2,2,0,0,1,3.414-1.414l3.118,3.118,2.038-2.04-6.4-6.4a1.963,1.963,0,0,1-.934-.145,2,2,0,0,1-.562-.351h-.172a9.694,9.694,0,0,1-7.176,2.914A9.7,9.7,0,0,1,12.9,6.118h-.172a2,2,0,0,1-.561.351,2.042,2.042,0,0,1-.936.145l-6.4,6.4,2.038,2.04,3.117-3.119A2,2,0,0,1,13.4,13.353V34.024Z" fill="#fff"/>
    </g>
  </g>
</svg>
