<svg xmlns="http://www.w3.org/2000/svg" width="40" height="40" viewBox="0 0 40 40"><defs><style>.a{fill:#f6d58a;}</style></defs><path class="a" d="M35.714,42.25H4.286A4.3,4.3,0,0,1,0,37.964V6.536A4.3,4.3,0,0,1,4.286,2.25H35.714A4.3,4.3,0,0,1,40,6.536V37.964A4.3,4.3,0,0,1,35.714,42.25ZM17.821,15.33c0-2.741-1.571-4.027-3.545-4.027-2.3,0-3.571,1.768-3.571,3.973V29.1c0,2.3,1.223,4.071,3.616,4.071,1.92,0,3.5-1.25,3.5-4.071V25.366l5.411,6.759a3.5,3.5,0,0,0,5.339-4.5l-4.384-5.607L27.8,16.777a3.4,3.4,0,0,0-.5-4.384,3.51,3.51,0,0,0-5.482.625l-4,5.777V15.33Z" transform="translate(0 -2.25)"/></svg>