<svg height='300px' width='300px'  fill="#000000" xmlns="http://www.w3.org/2000/svg" data-name="Layer 1" viewBox="0 0 100 100" x="0px" y="0px"><title>Artboard 14</title><g><path d="M28.14,25.58,38.28,60A7,7,0,0,0,45,65H67.12a7,7,0,0,0,6.64-4.79l7-21a3.2,3.2,0,0,0-3-4.21H37.17L33.85,23.75l-.07-.21A7,7,0,0,0,27.23,19H19v6h8.23A1,1,0,0,1,28.14,25.58ZM73.84,41,68.07,58.32a1,1,0,0,1-.95.68H45a1,1,0,0,1-1-.72L38.94,41Z"></path><circle cx="39" cy="77" r="4"></circle><circle cx="73" cy="77" r="4"></circle></g></svg>