<svg xmlns="http://www.w3.org/2000/svg" width="44.767" height="50" viewBox="0 0 44.767 50">
  <path id="like_1_" data-name="like (1)" d="M40.582,18.5,29.268,17.075A27.042,27.042,0,0,0,31.32,6.694c0-2.526-.811-4.388-2.409-5.534A6.9,6.9,0,0,0,24.807,0h-.082l-.081.009A4.018,4.018,0,0,0,21.23,4.493,4.387,4.387,0,0,1,21.1,5.731a22.5,22.5,0,0,1-2.009,4.5l-.056.109a6.7,6.7,0,0,1-3.015,2.924,15.223,15.223,0,0,0-3.666,2.884A17.164,17.164,0,0,0,10.432,18.8a2.387,2.387,0,0,0-.287.509c-.01.019-.021.037-.031.055-.029.051-.069.12-.11.2-.062.114-.13.241-.2.377-1.16,1.007-2.952.988-4.042.975l-.309,0A4.883,4.883,0,0,0,1.8,22.3,4.99,4.99,0,0,0,.5,25.868V41.807a4.679,4.679,0,0,0,1.289,3.611,5.4,5.4,0,0,0,3.663,1.089H8.938a6.97,6.97,0,0,1,2.725.833c.59.263,1.259.561,2.025.83C17.282,49.415,22.065,50,28.739,50c1.294,0,5.306,0,5.308,0a5.653,5.653,0,0,0,3.938-1.642A3.733,3.733,0,0,0,39.1,46.173a7.441,7.441,0,0,0,.057-.848,4.24,4.24,0,0,0-.241-1.614A5.346,5.346,0,0,0,42,42.281a5.237,5.237,0,0,0,1.591-3.835,4.907,4.907,0,0,0-.989-2.977,4.12,4.12,0,0,0,1.059-.74A4.532,4.532,0,0,0,44.939,31.4a4.555,4.555,0,0,0-1.349-3.512A5.851,5.851,0,0,0,45.261,24,5.159,5.159,0,0,0,40.582,18.5Zm0,0" transform="translate(-0.5 0)" fill="#80c78b"/>
</svg>
