<svg xmlns="http://www.w3.org/2000/svg" width="155.415" height="122.374" viewBox="0 0 155.415 122.374">
  <g id="_404-error" data-name="404-error" transform="translate(0 -54)">
    <path id="Path_819" data-name="Path 819" d="M33.347,148.228V139.05H15.565a3.07,3.07,0,0,1-2.679-4.537c2.321-4.213,14.1-25.489,16.441-28.361,1.819-2.232,4.238-3.09,6.473-2.295a5.877,5.877,0,0,1,3.665,5.662v23.413h2.255a3.059,3.059,0,0,1,0,6.119H39.466v9.178a3.059,3.059,0,1,1-6.119,0Zm0-15.3v-21.87c-2.237,3.467-7.991,13.614-12.588,21.87Zm98.548,15.3V139.05H114.112a3.07,3.07,0,0,1-2.679-4.537c2.321-4.213,14.1-25.489,16.441-28.361,1.819-2.232,4.238-3.09,6.473-2.295a5.877,5.877,0,0,1,3.665,5.662v23.413h2.255a3.059,3.059,0,1,1,0,6.119h-2.255v9.178a3.059,3.059,0,1,1-6.118,0Zm0-15.3v-21.87c-2.237,3.467-7.991,13.614-12.588,21.87ZM77.708,155.265a27.84,27.84,0,1,1,27.84-27.84A27.871,27.871,0,0,1,77.708,155.265Zm0-6.119a21.721,21.721,0,1,0-21.721-21.721A21.746,21.746,0,0,0,77.708,149.146ZM84,140.466a3.059,3.059,0,0,0,2.091-5.75,24.55,24.55,0,0,0-16.758,0,3.059,3.059,0,1,0,2.091,5.75A18.429,18.429,0,0,1,84,140.466ZM73.147,124.633a3.058,3.058,0,0,0-.679-4.273l-3.347-2.429a3.059,3.059,0,1,0-3.594,4.952l3.347,2.429A3.075,3.075,0,0,0,73.147,124.633ZM18.356,69.3A3.059,3.059,0,1,1,15.3,66.237,3.059,3.059,0,0,1,18.356,69.3Zm13.767,0a3.059,3.059,0,1,1-3.059-3.059A3.059,3.059,0,0,1,32.123,69.3Zm13.767,0a3.059,3.059,0,1,1-3.059-3.059A3.059,3.059,0,0,1,45.89,69.3Zm40.654,56.015,3.347-2.429A3.059,3.059,0,1,0,86.3,117.93l-3.347,2.429a3.059,3.059,0,1,0,3.594,4.952ZM3.059,176.374A3.059,3.059,0,0,1,0,173.315V63.178A9.178,9.178,0,0,1,9.178,54H146.237a9.178,9.178,0,0,1,9.178,9.178V173.315a3.059,3.059,0,0,1-3.059,3.059H91.475a3.064,3.064,0,0,1-3.052-3.272,3.133,3.133,0,0,1,3.162-2.847H149.3V84.594H6.119v85.662H94.424a3.133,3.133,0,0,1,3.162,2.847,3.064,3.064,0,0,1-3.052,3.272Zm3.059-97.9H149.3v-15.3a3.063,3.063,0,0,0-3.059-3.059H9.178a3.063,3.063,0,0,0-3.059,3.059Z" transform="translate(0)" fill="#7279ff"/>
  </g>
</svg>
