<svg xmlns="http://www.w3.org/2000/svg" xmlns:xlink="http://www.w3.org/1999/xlink" width="304.082" height="60" viewBox="0 0 304.082 60"><defs><style>.a{fill:none;}.b{fill:#f8f8f8;}.c{clip-path:url(#a);}.d{fill:#003d79;}.e{clip-path:url(#b);}.f{fill:#003d7a;}.g{fill:#003e7b;}.h{fill:#003e7c;}.i{fill:#003f7d;}.j{fill:#00407d;}.k{fill:#00407f;}.l{fill:#00417f;}.m{fill:#004180;}.n{fill:#004280;}.o{fill:#004382;}.p{fill:#004381;}.q{fill:#004484;}.r{fill:#004585;}.s{fill:#004685;}.t{fill:#004787;}.u{fill:#004887;}.v{fill:#004889;}.w{fill:#004989;}.x{fill:#00498a;}.y{fill:#00498b;}.z{fill:#004a8b;}.aa{fill:#004b8c;}.ab{fill:#004d8e;}.ac{fill:#004e8e;}.ad{fill:#004e8f;}.ae{fill:#004f90;}.af{fill:#004f91;}.ag{fill:#005091;}.ah{fill:#005092;}.ai{fill:#005192;}.aj{fill:#005193;}.ak{fill:#005395;}.al{fill:#005396;}.am{fill:#005596;}.an{fill:#005697;}.ao{fill:#005598;}.ap{fill:#005699;}.aq{fill:#005799;}.ar{fill:#00589a;}.as{fill:#00589b;}.at{fill:#00599b;}.au{fill:#00599c;}.av{fill:#005a9c;}.aw{fill:#005a9d;}.ax{fill:#005b9e;}.ay{fill:#005c9e;}.az{fill:#005d9f;}.ba{fill:#005ea1;}.bb{fill:#005ea0;}.bc{fill:#005fa2;}.bd{fill:#0060a2;}.be{fill:#005fa3;}.bf{fill:#0060a3;}.bg{fill:#0061a4;}.bh{fill:#0062a5;}.bi{fill:#0062a6;}.bj{fill:#0063a7;}.bk{fill:#0064a7;}.bl{fill:#0065a8;}.bm{fill:#0065a9;}.bn{fill:#06a;}.bo{fill:#0067ab;}.bp{fill:#0068ab;}.bq{fill:#0068ad;}.br{fill:#0069ad;}.bs{fill:#006aae;}.bt{fill:#006baf;}.bu{fill:#006bb0;}.bv{fill:#006cb0;}.bw{fill:#006db1;}.bx{fill:#006eb2;}.by{fill:#006fb2;}.bz{fill:#006fb4;}.ca{fill:#0070b5;}.cb{fill:#0070b6;}.cc{fill:#0071b8;}.cd{fill:#0072b7;}.ce{fill:#0073b8;}.cf{fill:#0073b9;}.cg{fill:#0074bb;}.ch{fill:#0075bb;}.ci{fill:#0076bc;}.cj{fill:#0077bd;}.ck{fill:#0078be;}.cl{fill:#0078bf;}.cm{fill:#0079c2;}.cn{fill:#007ac0;}.co{fill:#007ac3;}.cp{fill:#007bc3;}.cq{fill:#007cc3;}.cr{fill:#007dc4;}.cs{fill:#007ec5;}.ct{fill:#007fc6;}.cu{fill:#0080c7;}.cv{fill:#0081c8;}.cw{fill:#0082c8;}.cx{fill:#0082c9;}.cy{fill:#0083ca;}.cz{fill:#0085cb;}.da{fill:#0087cc;}.db{fill:#0087cd;}.dc{fill:#0089ce;}.dd{fill:#008bcf;}.de{fill:#008cd0;}.df{fill:#008bd0;}.dg{fill:#008dd1;}.dh{fill:#008fd2;}.di{fill:#0090d3;}.dj{fill:#0090d4;}.dk{fill:#0092d5;}.dl{fill:#0093d5;}.dm{fill:#0094d6;}.dn{fill:#0095d7;}.do{fill:#0097d8;}.dp{fill:#0098d9;}.dq{fill:#009bdb;}.dr{fill:#009cdc;}.ds{fill:#8c8d91;}.dt{clip-path:url(#d);}.du{fill:#fff;}</style><clipPath id="a"><rect class="a" width="304.082" height="60"/></clipPath><clipPath id="b"><path class="a" d="M1465.34,636.756a7.713,7.713,0,0,0-7.714,7.715v34.92h34.917a7.712,7.712,0,0,0,7.615-6.487V636.756Z" transform="translate(-1457.626 -636.756)"/></clipPath><clipPath id="d"><path class="b" d="M1465.34,636.756a7.713,7.713,0,0,0-7.714,7.715v34.92h34.917a7.712,7.712,0,0,0,7.615-6.487V636.756Z" transform="translate(-1203.611 -628.357)"/></clipPath></defs><g transform="translate(-813.8 -615.484)"><g transform="translate(813.8 615.484)"><g class="c" transform="translate(0 0)"><path class="d" d="M1457.626,679.39h34.917a7.712,7.712,0,0,0,7.615-6.487V636.756H1465.34a7.713,7.713,0,0,0-7.714,7.715v34.911" transform="translate(-1203.587 -628.362)"/></g></g><g transform="translate(1067.839 623.877)"><g class="e" transform="translate(0 0)"><path class="d" d="M1474.951,681.731c-4.342,22.994-33.807,36.736-65.815,30.693s-54.436-29.58-50.1-52.574,33.811-36.735,65.819-30.692,54.436,29.579,50.1,52.573" transform="translate(-1397.613 -631.293)"/><path class="f" d="M1474.723,682.039c-4.324,22.92-33.687,36.619-65.581,30.6s-54.241-29.481-49.917-52.4,33.69-36.616,65.586-30.6,54.24,29.48,49.912,52.4" transform="translate(-1397.727 -631.588)"/><path class="g" d="M1474.5,682.346c-4.312,22.845-33.572,36.5-65.351,30.5s-54.045-29.382-49.732-52.225,33.57-36.5,65.35-30.5,54.046,29.38,49.733,52.225" transform="translate(-1397.846 -631.883)"/><path class="h" d="M1474.273,682.65c-4.3,22.771-33.453,36.385-65.117,30.4S1355.307,683.773,1359.6,661s33.455-36.38,65.12-30.4,53.848,29.284,49.55,52.051" transform="translate(-1397.959 -632.177)"/><path class="h" d="M1474.048,682.961c-4.286,22.7-33.335,36.265-64.885,30.307s-53.654-29.183-49.371-51.875,33.336-36.263,64.887-30.308,53.653,29.182,49.369,51.876" transform="translate(-1398.073 -632.474)"/><path class="h" d="M1473.82,683.269c-4.272,22.62-33.216,36.146-64.652,30.21s-53.459-29.083-49.189-51.7,33.218-36.145,64.655-30.211,53.457,29.083,49.187,51.7" transform="translate(-1398.187 -632.768)"/><path class="i" d="M1473.593,683.575c-4.255,22.547-33.1,36.031-64.419,30.116s-53.261-28.984-49.006-51.529,33.1-36.027,64.422-30.115,53.261,28.983,49,51.527" transform="translate(-1398.303 -633.063)"/><path class="i" d="M1473.367,683.882c-4.241,22.472-32.978,35.912-64.184,30.018s-53.068-28.882-48.829-51.353,32.981-35.91,64.19-30.02,53.067,28.884,48.823,51.355" transform="translate(-1398.417 -633.357)"/><path class="j" d="M1473.141,684.19c-4.229,22.4-32.86,35.8-63.953,29.922s-52.871-28.785-48.646-51.179,32.865-35.792,63.957-29.922,52.869,28.784,48.642,51.18" transform="translate(-1398.531 -633.653)"/><path class="k" d="M1472.914,684.5c-4.212,22.324-32.742,35.679-63.719,29.827s-52.677-28.685-48.464-51,32.746-35.674,63.724-29.827,52.673,28.683,48.458,51" transform="translate(-1398.647 -633.948)"/><path class="l" d="M1472.69,684.8c-4.2,22.246-32.625,35.559-63.488,29.729s-52.48-28.583-48.281-50.83,32.626-35.558,63.49-29.731,52.478,28.585,48.279,50.831" transform="translate(-1398.763 -634.241)"/><path class="l" d="M1472.463,685.112c-4.186,22.171-32.506,35.441-63.257,29.634s-52.282-28.486-48.1-50.657,32.51-35.44,63.259-29.634,52.283,28.483,48.1,50.657" transform="translate(-1398.876 -634.538)"/><path class="m" d="M1472.237,685.418c-4.17,22.1-32.386,35.325-63.02,29.539s-52.09-28.385-47.92-50.481,32.391-35.323,63.027-29.539,52.086,28.384,47.913,50.481" transform="translate(-1398.993 -634.833)"/><path class="m" d="M1472.012,685.724c-4.157,22.025-32.268,35.208-62.79,29.443s-51.893-28.284-47.738-50.306,32.272-35.2,62.793-29.443,51.891,28.286,47.734,50.307" transform="translate(-1399.108 -635.127)"/><path class="n" d="M1471.784,686.035c-4.142,21.948-32.151,35.088-62.556,29.346s-51.7-28.186-47.556-50.132,32.154-35.087,62.56-29.347,51.7,28.185,47.552,50.133" transform="translate(-1399.221 -635.423)"/><path class="o" d="M1471.562,686.341c-4.13,21.873-32.033,34.971-62.325,29.25s-51.5-28.087-47.373-49.959,32.035-34.968,62.326-29.25,51.5,28.086,47.372,49.959" transform="translate(-1399.338 -635.718)"/><path class="p" d="M1471.333,686.647c-4.114,21.8-31.914,34.854-62.091,29.155s-51.305-27.987-47.191-49.785,31.917-34.849,62.094-29.154,51.3,27.987,47.187,49.785" transform="translate(-1399.453 -636.012)"/><path class="o" d="M1471.108,686.956c-4.1,21.723-31.8,34.736-61.86,29.057s-51.109-27.886-47.01-49.609,31.8-34.733,61.862-29.058,51.108,27.887,47.008,49.61" transform="translate(-1399.567 -636.308)"/><path class="q" d="M1470.881,687.263c-4.086,21.648-31.676,34.616-61.625,28.959s-50.916-27.786-46.83-49.435,31.679-34.617,61.63-28.962,50.912,27.787,46.824,49.438" transform="translate(-1399.682 -636.601)"/><path class="q" d="M1470.654,687.57c-4.073,21.574-31.561,34.5-61.393,28.866s-50.718-27.688-46.649-49.264,31.567-34.5,61.4-28.865,50.717,27.687,46.644,49.263" transform="translate(-1399.795 -636.897)"/><path class="r" d="M1470.428,687.879c-4.057,21.5-31.441,34.381-61.16,28.768s-50.524-27.588-46.467-49.086,31.445-34.38,61.165-28.77,50.521,27.588,46.461,49.088" transform="translate(-1399.911 -637.193)"/><path class="r" d="M1470.2,688.184c-4.046,21.426-31.324,34.265-60.929,28.673s-50.326-27.488-46.284-48.911,31.326-34.263,60.93-28.675,50.326,27.489,46.283,48.914" transform="translate(-1400.026 -637.486)"/><path class="s" d="M1469.977,688.493c-4.03,21.351-31.2,34.146-60.7,28.576s-50.129-27.388-46.1-48.738,31.208-34.144,60.7-28.578,50.128,27.389,46.1,48.74" transform="translate(-1400.142 -637.782)"/><path class="t" d="M1469.75,688.8c-4.016,21.278-31.086,34.029-60.463,28.481s-49.935-27.287-45.92-48.564,31.09-34.024,60.466-28.481,49.935,27.289,45.917,48.565" transform="translate(-1400.256 -638.077)"/><path class="t" d="M1469.526,689.108c-4,21.2-30.969,33.909-60.231,28.384s-49.74-27.19-45.739-48.39,30.971-33.908,60.234-28.384,49.738,27.189,45.735,48.39" transform="translate(-1400.372 -638.372)"/><path class="t" d="M1469.3,689.412c-3.988,21.127-30.849,33.794-60,28.289s-49.544-27.091-45.557-48.215,30.851-33.792,60-28.29,49.542,27.09,45.554,48.216" transform="translate(-1400.487 -638.666)"/><path class="u" d="M1469.071,689.721c-3.973,21.054-30.731,33.676-59.763,28.194s-49.35-26.991-45.377-48.042,30.735-33.674,59.769-28.192,49.345,26.989,45.371,48.04" transform="translate(-1400.6 -638.962)"/><path class="v" d="M1468.847,690.027c-3.962,20.977-30.614,33.557-59.533,28.1s-49.152-26.89-45.194-47.866,30.617-33.557,59.535-28.1,49.152,26.89,45.192,47.867" transform="translate(-1400.716 -639.256)"/><path class="w" d="M1468.62,690.337c-3.946,20.9-30.494,33.439-59.3,28s-48.957-26.792-45.012-47.693,30.5-33.438,59.3-28,48.955,26.79,45.008,47.693" transform="translate(-1400.831 -639.552)"/><path class="x" d="M1468.395,690.645c-3.932,20.827-30.378,33.32-59.067,27.9s-48.761-26.691-44.83-47.517,30.379-33.319,59.07-27.9,48.759,26.69,44.828,47.519" transform="translate(-1400.946 -639.848)"/><path class="x" d="M1468.169,690.95c-3.918,20.754-30.259,33.2-58.833,27.81s-48.567-26.592-44.65-47.346,30.262-33.2,58.837-27.809,48.563,26.592,44.646,47.344" transform="translate(-1401.061 -640.141)"/><path class="y" d="M1467.942,691.259c-3.9,20.679-30.138,33.087-58.6,27.713s-48.371-26.494-44.468-47.172,30.143-33.084,58.6-27.711,48.368,26.492,44.464,47.17" transform="translate(-1401.176 -640.438)"/><path class="z" d="M1467.717,691.564c-3.89,20.6-30.024,32.969-58.369,27.616s-48.174-26.391-44.286-47,30.026-32.967,58.371-27.616,48.172,26.393,44.284,47" transform="translate(-1401.291 -640.731)"/><path class="aa" d="M1467.487,691.872c-3.874,20.529-29.9,32.85-58.135,27.519s-47.979-26.292-44.105-46.82,29.907-32.851,58.14-27.521,47.976,26.292,44.1,46.822" transform="translate(-1401.404 -641.025)"/><path class="aa" d="M1467.263,692.181c-3.861,20.454-29.784,32.734-57.9,27.423s-47.782-26.192-43.922-46.646,29.789-32.733,57.907-27.423,47.78,26.191,43.917,46.647" transform="translate(-1401.521 -641.322)"/><path class="ab" d="M1467.038,692.489c-3.847,20.378-29.666,32.615-57.668,27.325s-47.588-26.093-43.742-46.471,29.67-32.616,57.675-27.328,47.583,26.092,43.736,46.474" transform="translate(-1401.636 -641.617)"/><path class="ab" d="M1466.811,692.8c-3.833,20.3-29.548,32.5-57.436,27.231s-47.392-25.994-43.56-46.3,29.552-32.5,57.441-27.231,47.389,25.991,43.555,46.3" transform="translate(-1401.751 -641.912)"/><path class="ab" d="M1466.584,693.1c-3.818,20.231-29.43,32.38-57.2,27.134s-47.194-25.893-43.378-46.123,29.433-32.377,57.209-27.135,47.192,25.895,43.372,46.124" transform="translate(-1401.866 -642.206)"/><path class="ac" d="M1466.362,693.409c-3.8,20.157-29.314,32.263-56.972,27.039s-47-25.793-43.195-45.948,29.313-32.261,56.974-27.039,47,25.794,43.192,45.948" transform="translate(-1401.982 -642.502)"/><path class="ad" d="M1466.134,693.716c-3.789,20.081-29.194,32.145-56.738,26.943s-46.8-25.694-43.014-45.775,29.2-32.145,56.742-26.944,46.8,25.7,43.01,45.776" transform="translate(-1402.097 -642.795)"/><path class="ae" d="M1465.909,694.021c-3.776,20.007-29.076,32.028-56.506,26.846s-46.608-25.592-42.833-45.6,29.078-32.026,56.509-26.849,46.607,25.6,42.83,45.6" transform="translate(-1402.211 -643.09)"/><path class="af" d="M1465.68,694.331c-3.762,19.932-28.958,31.908-56.272,26.749s-46.414-25.494-42.653-45.424,28.961-31.907,56.276-26.752,46.411,25.494,42.648,45.427" transform="translate(-1402.325 -643.386)"/><path class="af" d="M1465.456,694.639c-3.749,19.857-28.838,31.792-56.041,26.654s-46.216-25.4-42.469-45.252,28.841-31.791,56.044-26.654,46.216,25.395,42.466,45.252" transform="translate(-1402.441 -643.681)"/><path class="ag" d="M1465.226,694.947c-3.732,19.783-28.72,31.673-55.807,26.557s-46.02-25.3-42.291-45.076,28.727-31.673,55.812-26.559,46.019,25.3,42.285,45.078" transform="translate(-1402.553 -643.977)"/><path class="ah" d="M1465,695.252c-3.721,19.709-28.6,31.557-55.575,26.464s-45.826-25.2-42.107-44.9,28.606-31.555,55.578-26.462,45.825,25.194,42.1,44.9" transform="translate(-1402.67 -644.271)"/><path class="ai" d="M1464.776,695.558c-3.706,19.635-28.483,31.439-55.341,26.368s-45.629-25.1-41.924-44.729,28.487-31.436,55.344-26.367,45.63,25.1,41.922,44.728" transform="translate(-1402.786 -644.566)"/><path class="aj" d="M1464.552,695.868c-3.691,19.557-28.365,31.322-55.109,26.269s-45.434-25-41.742-44.553,28.367-31.32,55.111-26.271,45.433,25,41.74,44.555" transform="translate(-1402.902 -644.861)"/><path class="ak" d="M1464.325,696.174c-3.678,19.483-28.248,31.2-54.879,26.174s-45.237-24.9-41.561-44.38,28.251-31.2,54.881-26.175,45.238,24.9,41.559,44.38" transform="translate(-1403.015 -645.155)"/><path class="ak" d="M1464.1,696.483c-3.665,19.407-28.131,31.084-54.645,26.076s-45.043-24.8-41.38-44.2,28.131-31.086,54.647-26.079,45.041,24.8,41.378,44.206" transform="translate(-1403.131 -645.451)"/><path class="al" d="M1463.873,696.789c-3.65,19.335-28.013,30.966-54.413,25.982s-44.845-24.7-41.2-44.03,28.013-30.966,54.415-25.984,44.846,24.7,41.2,44.032" transform="translate(-1403.245 -645.745)"/><path class="al" d="M1463.646,697.1c-3.635,19.259-27.893,30.85-54.179,25.886s-44.651-24.6-41.017-43.857,27.9-30.848,54.182-25.886,44.65,24.6,41.014,43.857" transform="translate(-1403.36 -646.04)"/><path class="am" d="M1463.423,697.4c-3.621,19.184-27.775,30.731-53.947,25.788s-44.454-24.5-40.833-43.682,27.776-30.732,53.947-25.79,44.453,24.5,40.832,43.684" transform="translate(-1403.477 -646.334)"/><path class="an" d="M1463.195,697.711c-3.607,19.11-27.657,30.615-53.715,25.694s-44.259-24.4-40.651-43.509,27.659-30.613,53.716-25.693,44.26,24.4,40.651,43.508" transform="translate(-1403.59 -646.631)"/><path class="ao" d="M1462.968,698.018c-3.593,19.036-27.538,30.5-53.479,25.6s-44.065-24.3-40.473-43.335,27.542-30.495,53.485-25.6,44.061,24.3,40.468,43.333" transform="translate(-1403.704 -646.926)"/><path class="ao" d="M1462.744,698.327c-3.578,18.961-27.419,30.379-53.248,25.5s-43.868-24.2-40.289-43.158,27.422-30.378,53.249-25.5,43.867,24.2,40.288,43.16" transform="translate(-1403.821 -647.221)"/><path class="ap" d="M1462.516,698.635c-3.565,18.886-27.3,30.261-53.015,25.406s-43.671-24.1-40.108-42.986,27.3-30.259,53.019-25.4,43.67,24.1,40.1,42.983" transform="translate(-1403.935 -647.517)"/><path class="aq" d="M1462.289,698.94c-3.55,18.811-27.182,30.143-52.78,25.309s-43.478-24-39.928-42.81,27.188-30.144,52.786-25.311,43.475,24,39.922,42.812" transform="translate(-1404.049 -647.809)"/><path class="aq" d="M1462.066,699.247c-3.537,18.737-27.065,30.028-52.55,25.212s-43.28-23.9-39.742-42.635,27.066-30.026,52.551-25.214,43.28,23.9,39.741,42.636" transform="translate(-1404.167 -648.105)"/><path class="ar" d="M1461.837,699.554c-3.521,18.663-26.944,29.909-52.317,25.117s-43.084-23.8-39.561-42.462,26.949-29.906,52.318-25.119,43.085,23.8,39.56,42.464" transform="translate(-1404.28 -648.399)"/><path class="as" d="M1461.613,699.862c-3.509,18.589-26.828,29.79-52.083,25.021s-42.89-23.7-39.382-42.288,26.831-29.789,52.087-25.02,42.889,23.7,39.378,42.287" transform="translate(-1404.395 -648.695)"/><path class="at" d="M1461.386,700.168c-3.494,18.513-26.711,29.674-51.851,24.925s-42.693-23.6-39.2-42.114,26.713-29.672,51.856-24.925,42.69,23.6,39.2,42.114" transform="translate(-1404.51 -648.989)"/><path class="au" d="M1461.159,700.475c-3.479,18.439-26.592,29.555-51.618,24.829s-42.5-23.5-39.019-41.938,26.595-29.554,51.623-24.83,42.5,23.5,39.014,41.939" transform="translate(-1404.624 -649.284)"/><path class="av" d="M1460.933,700.785c-3.466,18.363-26.472,29.437-51.387,24.732s-42.3-23.4-38.836-41.765,26.477-29.435,51.391-24.733,42.3,23.4,38.832,41.766" transform="translate(-1404.738 -649.58)"/><path class="aw" d="M1460.709,701.093c-3.452,18.287-26.354,29.317-51.153,24.635s-42.106-23.3-38.654-41.589,26.357-29.319,51.155-24.637,42.106,23.3,38.652,41.592" transform="translate(-1404.856 -649.875)"/><path class="ax" d="M1460.48,701.4c-3.437,18.215-26.235,29.2-50.919,24.542s-41.912-23.205-38.474-41.419,26.238-29.2,50.925-24.539,41.908,23.2,38.468,41.417" transform="translate(-1404.969 -650.169)"/><path class="ax" d="M1460.255,701.7c-3.423,18.141-26.118,29.085-50.686,24.445s-41.716-23.1-38.292-41.243,26.121-29.082,50.691-24.443,41.712,23.1,38.287,41.24" transform="translate(-1405.085 -650.465)"/><path class="ay" d="M1460.031,702.014c-3.41,18.065-26,28.967-50.456,24.347s-41.519-23-38.109-41.066,26-28.966,50.458-24.348,41.517,23,38.107,41.067" transform="translate(-1405.2 -650.76)"/><path class="az" d="M1459.8,702.319c-3.394,17.991-25.881,28.849-50.221,24.251s-41.324-22.9-37.928-40.891,25.886-28.849,50.226-24.253,41.321,22.9,37.924,40.893" transform="translate(-1405.314 -651.053)"/><path class="ba" d="M1459.578,702.626c-3.382,17.916-25.765,28.732-49.989,24.156s-41.128-22.8-37.747-40.719,25.766-28.73,49.993-24.155,41.127,22.8,37.744,40.718" transform="translate(-1405.429 -651.349)"/><path class="bb" d="M1459.35,702.934c-3.367,17.84-25.644,28.614-49.757,24.061s-40.932-22.706-37.566-40.545,25.649-28.614,49.76-24.061,40.93,22.705,37.563,40.545" transform="translate(-1405.543 -651.643)"/><path class="bc" d="M1459.127,703.242c-3.354,17.765-25.527,28.5-49.525,23.962s-40.736-22.6-37.383-40.368,25.528-28.494,49.526-23.965,40.735,22.606,37.381,40.371" transform="translate(-1405.66 -651.939)"/><path class="bd" d="M1458.9,703.549c-3.339,17.691-25.408,28.377-49.292,23.868s-40.539-22.505-37.2-40.2,25.412-28.378,49.3-23.868,40.539,22.505,37.2,40.2" transform="translate(-1405.774 -652.234)"/><path class="be" d="M1458.674,703.856c-3.324,17.616-25.291,28.262-49.057,23.773s-40.346-22.405-37.02-40.022,25.291-28.26,49.061-23.771,40.343,22.4,37.016,40.02" transform="translate(-1405.89 -652.529)"/><path class="bf" d="M1458.45,704.163c-3.312,17.542-25.173,28.142-48.827,23.676s-40.149-22.308-36.838-39.849,25.173-28.14,48.828-23.675,40.147,22.306,36.837,39.848" transform="translate(-1406.005 -652.823)"/><path class="bg" d="M1458.22,704.47c-3.3,17.469-25.054,28.027-48.594,23.58s-39.953-22.207-36.657-39.672,25.058-28.026,48.6-23.58,39.952,22.207,36.654,39.672" transform="translate(-1406.118 -653.118)"/><path class="bg" d="M1457.994,704.778c-3.281,17.394-24.935,27.908-48.36,23.484s-39.758-22.107-36.475-39.5,24.938-27.905,48.365-23.482,39.755,22.106,36.47,39.5" transform="translate(-1406.234 -653.414)"/><path class="bh" d="M1457.77,705.086c-3.27,17.318-24.818,27.791-48.129,23.387s-39.562-22.008-36.292-39.322,24.82-27.79,48.13-23.388,39.56,22,36.292,39.324" transform="translate(-1406.349 -653.709)"/><path class="bh" d="M1457.541,705.392c-3.255,17.244-24.7,27.672-47.9,23.292s-39.366-21.909-36.112-39.15,24.7-27.671,47.9-23.291,39.363,21.906,36.107,39.15" transform="translate(-1406.462 -654.003)"/><path class="bi" d="M1457.318,705.7c-3.24,17.168-24.58,27.554-47.662,23.2s-39.17-21.809-35.93-38.976,24.583-27.552,47.665-23.2,39.169,21.807,35.927,38.976" transform="translate(-1406.58 -654.298)"/><path class="bj" d="M1457.09,706.008c-3.227,17.1-24.462,27.435-47.43,23.1s-38.974-21.708-35.748-38.8,24.465-27.437,47.434-23.1,38.973,21.706,35.744,38.8" transform="translate(-1406.693 -654.593)"/><path class="bk" d="M1456.864,706.312c-3.213,17.02-24.344,27.32-47.2,23s-38.778-21.609-35.566-38.628,24.346-27.318,47.2-23,38.778,21.609,35.563,38.628" transform="translate(-1406.809 -654.886)"/><path class="bl" d="M1456.639,706.621c-3.2,16.945-24.226,27.2-46.965,22.907s-38.583-21.51-35.384-38.453,24.226-27.2,46.965-22.907,38.583,21.509,35.384,38.453" transform="translate(-1406.924 -655.182)"/><path class="bl" d="M1456.412,706.928c-3.184,16.87-24.107,27.084-46.73,22.81s-38.39-21.408-35.2-38.276,24.109-27.083,46.733-22.811,38.386,21.409,35.2,38.278" transform="translate(-1407.039 -655.477)"/><path class="bm" d="M1456.185,707.234c-3.17,16.8-23.99,26.966-46.5,22.716s-38.191-21.311-35.022-38.106,23.991-26.964,46.5-22.715,38.188,21.31,35.016,38.1" transform="translate(-1407.153 -655.771)"/><path class="bn" d="M1455.959,707.544c-3.154,16.72-23.87,26.848-46.266,22.618s-38-21.211-34.84-37.93,23.874-26.846,46.27-22.618,37.994,21.21,34.836,37.93" transform="translate(-1407.268 -656.067)"/><path class="bo" d="M1455.735,707.85c-3.141,16.647-23.753,26.73-46.034,22.522s-37.8-21.11-34.657-37.754,23.755-26.728,46.035-22.521,37.8,21.11,34.656,37.754" transform="translate(-1407.384 -656.363)"/><path class="bo" d="M1455.508,708.16c-3.126,16.57-23.633,26.611-45.8,22.426s-37.6-21.012-34.474-37.582,23.635-26.61,45.8-22.424,37.6,21.008,34.474,37.58" transform="translate(-1407.5 -656.659)"/><path class="bp" d="M1455.282,708.464c-3.114,16.5-23.516,26.495-45.567,22.329s-37.411-20.911-34.3-37.406,23.518-26.5,45.569-22.331,37.408,20.91,34.293,37.407" transform="translate(-1407.613 -656.951)"/><path class="bq" d="M1455.056,708.771c-3.1,16.423-23.4,26.377-45.334,22.235s-37.213-20.811-34.114-37.232,23.4-26.376,45.337-22.233,37.211,20.81,34.11,37.23" transform="translate(-1407.728 -657.247)"/><path class="br" d="M1454.832,709.079c-3.085,16.347-23.279,26.259-45.1,22.138S1372.711,710.5,1375.8,694.16s23.282-26.259,45.1-22.139,37.017,20.711,33.931,37.058" transform="translate(-1407.844 -657.541)"/><path class="bs" d="M1454.6,709.387c-3.07,16.271-23.161,26.14-44.87,22.039s-36.821-20.611-33.75-36.881,23.164-26.141,44.874-22.043,36.819,20.612,33.747,36.884" transform="translate(-1407.957 -657.837)"/><path class="bs" d="M1454.376,709.695c-3.057,16.2-23.043,26.023-44.638,21.945s-36.626-20.512-33.569-36.709,23.047-26.024,44.642-21.944,36.625,20.511,33.566,36.709" transform="translate(-1408.071 -658.132)"/><path class="bt" d="M1454.151,710c-3.044,16.124-22.924,25.907-44.4,21.85s-36.43-20.413-33.386-36.533,22.926-25.906,44.407-21.85S1457.2,693.878,1454.151,710" transform="translate(-1408.188 -658.426)"/><path class="bu" d="M1453.927,710.307c-3.028,16.049-22.807,25.789-44.173,21.754s-36.232-20.312-33.2-36.361,22.808-25.787,44.174-21.753,36.234,20.312,33.2,36.359" transform="translate(-1408.304 -658.721)"/><path class="bv" d="M1453.7,710.615c-3.013,15.974-22.687,25.671-43.937,21.657s-36.039-20.214-33.023-36.185,22.689-25.67,43.941-21.658,36.039,20.213,33.02,36.186" transform="translate(-1408.418 -659.016)"/><path class="bv" d="M1453.474,710.923c-3,15.9-22.571,25.553-43.707,21.56s-35.841-20.114-32.841-36.011,22.571-25.551,43.709-21.561,35.841,20.113,32.839,36.011" transform="translate(-1408.533 -659.312)"/><path class="bw" d="M1453.248,711.229c-2.987,15.826-22.453,25.435-43.474,21.466s-35.648-20.013-32.66-35.837,22.454-25.434,43.476-21.465,35.645,20.013,32.658,35.836" transform="translate(-1408.648 -659.606)"/><path class="bx" d="M1453.022,711.536c-2.973,15.75-22.332,25.318-43.241,21.37s-35.452-19.915-32.477-35.663,22.335-25.317,43.243-21.371,35.449,19.916,32.476,35.664" transform="translate(-1408.763 -659.9)"/><path class="bx" d="M1452.8,711.844c-2.959,15.675-22.216,25.2-43.01,21.273s-35.256-19.815-32.3-35.489,22.218-25.2,43.01-21.274,35.254,19.814,32.3,35.489" transform="translate(-1408.877 -660.195)"/><path class="by" d="M1452.569,712.15c-2.944,15.6-22.1,25.083-42.776,21.177s-35.061-19.715-32.114-35.313,22.1-25.082,42.777-21.178,35.058,19.715,32.113,35.314" transform="translate(-1408.993 -660.49)"/><path class="by" d="M1452.344,712.458c-2.93,15.525-21.978,24.963-42.544,21.079s-34.865-19.615-31.933-35.139,21.98-24.964,42.546-21.08,34.862,19.615,31.932,35.14" transform="translate(-1409.107 -660.785)"/><path class="bz" d="M1452.117,712.767c-2.916,15.451-21.861,24.846-42.31,20.984s-34.668-19.517-31.752-34.967,21.862-24.845,42.314-20.984,34.667,19.515,31.749,34.967" transform="translate(-1409.222 -661.08)"/><path class="ca" d="M1451.888,713.072c-2.9,15.377-21.741,24.729-42.076,20.89s-34.474-19.418-31.571-34.792,21.745-24.729,42.08-20.889,34.471,19.416,31.568,34.791" transform="translate(-1409.335 -661.375)"/><path class="ca" d="M1451.663,713.381c-2.888,15.3-21.623,24.611-41.845,20.793s-34.276-19.317-31.389-34.617,21.625-24.611,41.849-20.791,34.275,19.315,31.385,34.615" transform="translate(-1409.451 -661.671)"/><path class="cb" d="M1451.438,713.688c-2.874,15.227-21.505,24.494-41.611,20.7s-34.084-19.218-31.208-34.443,21.507-24.492,41.613-20.7,34.081,19.217,31.205,34.443" transform="translate(-1409.567 -661.964)"/><path class="cc" d="M1451.212,713.995c-2.858,15.153-21.386,24.377-41.378,20.6s-33.885-19.118-31.025-34.268,21.388-24.375,41.381-20.6,33.885,19.116,31.022,34.266" transform="translate(-1409.682 -662.261)"/><path class="cd" d="M1450.986,714.3c-2.844,15.077-21.269,24.258-41.146,20.5S1376.15,715.787,1379,700.712s21.271-24.259,41.148-20.5,33.69,19.017,30.842,34.094" transform="translate(-1409.797 -662.554)"/><path class="cd" d="M1450.758,714.61c-2.83,15-21.149,24.139-40.912,20.406s-33.495-18.918-30.661-33.919,21.151-24.14,40.917-20.408,33.491,18.918,30.657,33.921" transform="translate(-1409.911 -662.849)"/><path class="ce" d="M1450.532,714.917c-2.818,14.928-21.033,24.024-40.682,20.311s-33.3-18.818-30.481-33.744,21.034-24.023,40.685-20.311,33.3,18.817,30.478,33.743" transform="translate(-1410.025 -663.145)"/><path class="cf" d="M1450.308,715.223c-2.8,14.854-20.913,23.907-40.448,20.216s-33.1-18.719-30.3-33.571,20.915-23.9,40.45-20.215,33.1,18.718,30.295,33.57" transform="translate(-1410.142 -663.439)"/><path class="cg" d="M1450.081,715.531c-2.789,14.779-20.794,23.787-40.214,20.12s-32.907-18.62-30.118-33.4,20.8-23.786,40.219-20.121,32.906,18.618,30.113,33.4" transform="translate(-1410.257 -663.734)"/><path class="ch" d="M1449.857,715.839c-2.776,14.7-20.679,23.668-39.984,20.021s-32.711-18.517-29.935-33.221,20.679-23.669,39.985-20.024,32.71,18.52,29.933,33.225" transform="translate(-1410.372 -664.028)"/><path class="ch" d="M1449.63,716.146c-2.76,14.629-20.561,23.551-39.75,19.927s-32.515-18.419-29.752-33.047,20.559-23.551,39.752-19.927,32.512,18.418,29.751,33.047" transform="translate(-1410.487 -664.325)"/><path class="ci" d="M1449.4,716.454c-2.746,14.555-20.44,23.435-39.516,19.832s-32.319-18.32-29.573-32.874,20.443-23.433,39.521-19.83,32.319,18.318,29.568,32.872" transform="translate(-1410.601 -664.62)"/><path class="cj" d="M1449.179,716.76c-2.734,14.48-20.323,23.316-39.285,19.736s-32.124-18.221-29.389-32.7,20.322-23.316,39.286-19.733,32.122,18.219,29.388,32.7" transform="translate(-1410.718 -664.914)"/><path class="cj" d="M1448.953,717.066c-2.72,14.406-20.205,23.2-39.054,19.638s-31.928-18.119-29.206-32.523,20.2-23.2,39.052-19.639,31.927,18.12,29.207,32.524" transform="translate(-1410.833 -665.208)"/><path class="ck" d="M1448.726,717.375c-2.7,14.33-20.085,23.08-38.818,19.542s-31.732-18.022-29.027-32.352,20.086-23.08,38.821-19.542,31.731,18.021,29.024,32.352" transform="translate(-1410.947 -665.503)"/><path class="ck" d="M1448.5,717.68c-2.691,14.257-19.967,22.964-38.588,19.447s-31.536-17.92-28.845-32.175,19.969-22.964,38.59-19.449,31.535,17.923,28.843,32.177" transform="translate(-1411.06 -665.797)"/><path class="cl" d="M1448.271,717.99c-2.675,14.181-19.848,22.844-38.354,19.35s-31.341-17.822-28.664-32,19.852-22.844,38.356-19.35,31.339,17.821,28.661,32" transform="translate(-1411.175 -666.093)"/><path class="cm" d="M1448.047,718.3c-2.662,14.108-19.731,22.728-38.121,19.255s-31.147-17.722-28.483-31.828,19.733-22.728,38.125-19.253,31.143,17.72,28.478,31.825" transform="translate(-1411.29 -666.388)"/><path class="cn" d="M1447.823,718.6c-2.648,14.032-19.612,22.609-37.889,19.157s-30.948-17.62-28.3-31.653,19.613-22.61,37.89-19.156,30.948,17.621,28.3,31.652" transform="translate(-1411.408 -666.683)"/><path class="co" d="M1447.6,718.91c-2.633,13.959-19.5,22.492-37.657,19.063s-30.752-17.523-28.117-31.479,19.5-22.492,37.659-19.062,30.751,17.522,28.115,31.479" transform="translate(-1411.521 -666.977)"/><path class="cp" d="M1447.37,719.217c-2.622,13.884-19.376,22.375-37.423,18.967s-30.558-17.423-27.937-31.3,19.377-22.374,37.424-18.967,30.558,17.423,27.935,31.3" transform="translate(-1411.636 -667.272)"/><path class="cq" d="M1447.142,719.524c-2.6,13.808-19.259,22.256-37.19,18.869s-30.363-17.322-27.757-31.13,19.262-22.255,37.194-18.87,30.361,17.324,27.753,31.131" transform="translate(-1411.749 -667.566)"/><path class="cq" d="M1446.918,719.831c-2.593,13.734-19.142,22.14-36.96,18.774s-30.166-17.225-27.574-30.957,19.141-22.137,36.96-18.773,30.166,17.224,27.573,30.955" transform="translate(-1411.865 -667.862)"/><path class="cr" d="M1446.69,720.138c-2.578,13.659-19.022,22.022-36.726,18.678s-29.97-17.124-27.393-30.782,19.023-22.02,36.73-18.677,29.968,17.125,27.389,30.782" transform="translate(-1411.979 -668.156)"/><path class="cs" d="M1446.463,720.447c-2.564,13.583-18.9,21.9-36.492,18.581S1380.2,722,1382.761,708.422s18.906-21.9,36.495-18.582,29.773,17.024,27.207,30.607" transform="translate(-1412.095 -668.452)"/><path class="ct" d="M1446.239,720.754c-2.547,13.509-18.784,21.787-36.26,18.485s-29.577-16.925-27.026-30.431,18.785-21.787,36.262-18.486,29.577,16.923,27.024,30.432" transform="translate(-1412.212 -668.747)"/><path class="cu" d="M1446.011,721.06c-2.534,13.434-18.665,21.668-36.026,18.388s-29.385-16.824-26.847-30.257,18.668-21.669,36.028-18.39,29.382,16.825,26.844,30.259" transform="translate(-1412.325 -669.041)"/><path class="cu" d="M1445.784,721.369c-2.521,13.36-18.547,21.551-35.792,18.294s-29.189-16.727-26.667-30.085,18.55-21.549,35.8-18.292,29.186,16.725,26.661,30.083" transform="translate(-1412.438 -669.337)"/><path class="cv" d="M1445.557,721.677c-2.5,13.284-18.429,21.431-35.56,18.2s-28.992-16.626-26.484-29.91,18.431-21.431,35.564-18.2,28.99,16.624,26.48,29.909" transform="translate(-1412.554 -669.632)"/><path class="cu" d="M1445.332,721.984c-2.494,13.211-18.312,21.316-35.33,18.1s-28.8-16.528-26.3-29.736,18.315-21.314,35.333-18.1,28.794,16.524,26.3,29.734" transform="translate(-1412.668 -669.927)"/><path class="cv" d="M1445.106,722.289c-2.478,13.137-18.192,21.2-35.094,18s-28.6-16.427-26.123-29.56,18.2-21.2,35.1-18.006,28.6,16.424,26.118,29.561" transform="translate(-1412.784 -670.22)"/><path class="cw" d="M1444.881,722.6c-2.465,13.062-18.075,21.081-34.862,17.911s-28.407-16.328-25.939-29.387,18.075-21.081,34.865-17.909,28.4,16.325,25.935,29.385" transform="translate(-1412.9 -670.516)"/><path class="cx" d="M1444.656,722.9c-2.45,12.986-17.956,20.963-34.63,17.813s-28.209-16.229-25.756-29.212,17.958-20.961,34.632-17.812,28.208,16.225,25.754,29.211" transform="translate(-1413.015 -670.811)"/><path class="cx" d="M1444.429,723.212c-2.436,12.911-17.837,20.844-34.4,17.718s-28.014-16.131-25.574-29.041,17.838-20.843,34.4-17.715,28.01,16.126,25.571,29.039" transform="translate(-1413.13 -671.105)"/><path class="cy" d="M1444.2,723.518c-2.422,12.838-17.719,20.728-34.166,17.622s-27.817-16.028-25.393-28.864,17.722-20.727,34.167-17.619,27.818,16.026,25.392,28.862" transform="translate(-1413.244 -671.4)"/><path class="cz" d="M1443.975,723.826c-2.405,12.763-17.6,20.608-33.931,17.526s-27.622-15.929-25.211-28.691,17.6-20.608,33.934-17.523,27.621,15.926,25.208,28.688" transform="translate(-1413.359 -671.695)"/><path class="cz" d="M1443.75,724.133c-2.394,12.688-17.485,20.492-33.7,17.428s-27.426-15.829-25.032-28.514,17.485-20.491,33.7-17.429,27.425,15.829,25.028,28.515" transform="translate(-1413.473 -671.99)"/><path class="cz" d="M1443.523,724.438c-2.38,12.615-17.364,20.375-33.466,17.333s-27.23-15.729-24.85-28.34,17.367-20.374,33.472-17.332,27.227,15.729,24.845,28.339" transform="translate(-1413.588 -672.284)"/><path class="da" d="M1443.3,724.746c-2.365,12.537-17.247,20.255-33.234,17.235s-27.035-15.628-24.667-28.166,17.249-20.255,33.236-17.237,27.034,15.631,24.664,28.167" transform="translate(-1413.703 -672.578)"/><path class="da" d="M1443.071,725.052c-2.35,12.464-17.127,20.139-33,17.14s-26.838-15.527-24.485-27.99,17.131-20.139,33-17.14,26.836,15.53,24.481,27.991" transform="translate(-1413.819 -672.873)"/><path class="db" d="M1442.847,725.362c-2.338,12.391-17.011,20.021-32.769,17.044s-26.642-15.43-24.3-27.818,17.012-20.018,32.772-17.041,26.638,15.43,24.3,27.816" transform="translate(-1413.934 -673.17)"/><path class="db" d="M1442.619,725.668c-2.323,12.315-16.891,19.9-32.536,16.947s-26.448-15.329-24.122-27.643,16.894-19.9,32.54-16.947,26.444,15.331,24.118,27.643" transform="translate(-1414.048 -673.463)"/><path class="dc" d="M1442.393,725.976c-2.309,12.239-16.774,19.785-32.3,16.851s-26.25-15.229-23.94-27.469,16.777-19.784,32.307-16.851,26.248,15.229,23.938,27.468" transform="translate(-1414.162 -673.758)"/><path class="dc" d="M1442.167,726.284c-2.3,12.165-16.656,19.667-32.071,16.755s-26.057-15.131-23.76-27.3,16.659-19.666,32.074-16.754,26.055,15.129,23.757,27.294" transform="translate(-1414.276 -674.054)"/><path class="dc" d="M1441.941,726.589c-2.281,12.09-16.537,19.55-31.838,16.66s-25.861-15.031-23.576-27.121,16.539-19.55,31.84-16.659,25.858,15.031,23.574,27.12" transform="translate(-1414.393 -674.347)"/><path class="dd" d="M1441.716,726.9c-2.267,12.015-16.419,19.431-31.606,16.562s-25.666-14.931-23.4-26.945,16.421-19.433,31.608-16.563,25.664,14.931,23.394,26.946" transform="translate(-1414.507 -674.642)"/><path class="de" d="M1441.49,727.2c-2.253,11.941-16.3,19.314-31.372,16.468s-25.47-14.831-23.213-26.769,16.3-19.316,31.374-16.468,25.467,14.829,23.211,26.769" transform="translate(-1414.624 -674.938)"/><path class="df" d="M1441.262,727.51c-2.237,11.867-16.18,19.2-31.138,16.372s-25.272-14.731-23.031-26.6,16.182-19.2,31.141-16.371,25.272,14.733,23.028,26.6" transform="translate(-1414.738 -675.232)"/><path class="dg" d="M1441.037,727.817c-2.226,11.793-16.065,19.079-30.906,16.276s-25.079-14.634-22.854-26.424,16.068-19.077,30.911-16.274,25.075,14.632,22.848,26.422" transform="translate(-1414.851 -675.527)"/><path class="dg" d="M1440.81,728.127c-2.211,11.717-15.946,18.959-30.674,16.179s-24.882-14.532-22.672-26.248,15.949-18.961,30.677-16.178,24.881,14.532,22.668,26.247" transform="translate(-1414.965 -675.823)"/><path class="dg" d="M1440.584,728.433c-2.2,11.64-15.824,18.843-30.441,16.082s-24.686-14.433-22.485-26.075,15.829-18.843,30.443-16.082,24.684,14.433,22.483,26.075" transform="translate(-1415.083 -676.116)"/><path class="dh" d="M1440.359,728.74c-2.183,11.568-15.711,18.724-30.209,15.986s-24.491-14.333-22.307-25.9,15.711-18.725,30.212-15.984,24.488,14.333,22.3,25.9" transform="translate(-1415.196 -676.412)"/><path class="dh" d="M1440.132,729.047c-2.168,11.491-15.589,18.607-29.976,15.89s-24.293-14.234-22.123-25.724,15.592-18.609,29.979-15.892,24.292,14.234,22.12,25.726" transform="translate(-1415.313 -676.706)"/><path class="di" d="M1439.906,729.354c-2.154,11.419-15.472,18.489-29.745,15.794s-24.1-14.133-21.942-25.55,15.474-18.489,29.747-15.794,24.1,14.133,21.94,25.55" transform="translate(-1415.426 -677.001)"/><path class="di" d="M1439.68,729.661c-2.14,11.344-15.353,18.372-29.51,15.7s-23.9-14.034-21.761-25.375,15.356-18.373,29.514-15.7,23.9,14.032,21.757,25.374" transform="translate(-1415.542 -677.297)"/><path class="dj" d="M1439.451,729.967c-2.126,11.27-15.235,18.254-29.276,15.6s-23.709-13.936-21.581-25.2,15.238-18.254,29.281-15.6,23.706,13.935,21.576,25.2" transform="translate(-1415.654 -677.589)"/><path class="dk" d="M1439.228,730.276c-2.112,11.193-15.118,18.136-29.045,15.506s-23.511-13.836-21.4-25.029,15.119-18.137,29.048-15.506,23.508,13.836,21.394,25.028" transform="translate(-1415.772 -677.885)"/><path class="dk" d="M1439,730.582c-2.1,11.12-15,18.02-28.813,15.409s-23.314-13.734-21.215-24.853,15-18.018,28.815-15.41S1441.1,719.463,1439,730.582" transform="translate(-1415.886 -678.179)"/><path class="dl" d="M1438.773,730.888c-2.081,11.045-14.881,17.9-28.579,15.314s-23.119-13.637-21.035-24.68,14.883-17.9,28.584-15.315,23.116,13.638,21.03,24.68" transform="translate(-1416 -678.473)"/><path class="dm" d="M1438.548,731.2c-2.07,10.971-14.762,17.784-28.348,15.217s-22.923-13.536-20.851-24.5,14.766-17.785,28.351-15.219,22.921,13.536,20.849,24.5" transform="translate(-1416.115 -678.77)"/><path class="dn" d="M1438.321,731.505c-2.055,10.895-14.643,17.664-28.113,15.121s-22.729-13.438-20.672-24.33,14.647-17.667,28.118-15.121,22.728,13.435,20.667,24.33" transform="translate(-1416.229 -679.065)"/><path class="dn" d="M1438.1,731.81c-2.042,10.82-14.525,17.547-27.88,15.027s-22.534-13.338-20.489-24.158,14.527-17.549,27.884-15.024,22.531,13.335,20.485,24.156" transform="translate(-1416.346 -679.358)"/><path class="do" d="M1437.87,732.117c-2.025,10.746-14.407,17.429-27.648,14.929s-22.336-13.238-20.307-23.982,14.409-17.431,27.651-14.929,22.335,13.235,20.3,23.982" transform="translate(-1416.461 -679.653)"/><path class="do" d="M1437.643,732.425c-2.013,10.672-14.29,17.313-27.415,14.834s-22.144-13.138-20.127-23.808,14.292-17.313,27.42-14.832,22.138,13.135,20.122,23.806" transform="translate(-1416.574 -679.949)"/><path class="dp" d="M1437.418,732.734c-2,10.6-14.173,17.193-27.185,14.736s-21.946-13.039-19.945-23.633,14.174-17.195,27.186-14.738,21.945,13.037,19.944,23.635" transform="translate(-1416.689 -680.243)"/><path class="dp" d="M1437.192,733.04c-1.985,10.521-14.052,17.075-26.95,14.641s-21.749-12.939-19.761-23.46,14.055-17.076,26.954-14.64,21.748,12.937,19.758,23.459" transform="translate(-1416.805 -680.538)"/><path class="dp" d="M1436.964,733.346c-1.969,10.448-13.933,16.959-26.717,14.545s-21.555-12.838-19.581-23.284,13.937-16.961,26.722-14.544,21.552,12.837,19.576,23.283" transform="translate(-1416.919 -680.833)"/><path class="dq" d="M1436.742,733.654c-1.957,10.371-13.817,16.841-26.487,14.448s-21.359-12.74-19.4-23.112,13.816-16.841,26.488-14.447,21.356,12.739,19.4,23.111" transform="translate(-1417.036 -681.127)"/><path class="dr" d="M1436.513,733.96c-1.941,10.3-13.7,16.724-26.252,14.353s-21.164-12.64-19.218-22.937,13.7-16.724,26.255-14.352,21.162,12.639,19.216,22.935" transform="translate(-1417.149 -681.422)"/><path class="dr" d="M1436.287,734.267c-1.927,10.223-13.579,16.6-26.02,14.255s-20.966-12.54-19.035-22.761,13.582-16.607,26.022-14.256,20.965,12.54,19.032,22.762" transform="translate(-1417.265 -681.716)"/></g></g><g transform="translate(813.8 615.484)"><g class="c" transform="translate(0 0)"><path class="d" d="M958.39,734.745h-.527l-1.032-2.252H953.65l-1.031,2.252h-.527l3.011-6.566h.274ZM955.238,729l-1.4,3.066h2.8Z" transform="translate(-897.525 -683.712)"/><path class="d" d="M971.788,728.3c2.773,0,3.556,1.823,3.556,3.261a3.137,3.137,0,0,1-3.466,3.257h-2.373V728.3h2.283m-1.774,6.1h1.834a2.84,2.84,0,1,0-.033-5.675h-1.8Z" transform="translate(-908.068 -683.785)"/><path class="d" d="M986.875,734.887h-.142l-2.742-6.586h.5l2.315,5.513L989.1,728.3h.505Z" transform="translate(-916.838 -683.786)"/><path class="d" d="M1000.043,734.745h-.526l-1.035-2.252H995.3l-1.031,2.252h-.528l3.011-6.566h.275ZM996.89,729l-1.4,3.066h2.8Z" transform="translate(-922.743 -683.712)"/><path class="d" d="M1017.031,734.819h-.42l-4.951-5.695v5.695h-.5V728.3h.431l4.935,5.7v-5.7h.509Z" transform="translate(-933.284 -683.786)"/><path class="d" d="M1033.382,729.186a4.786,4.786,0,0,0-2.321-.633,2.877,2.877,0,1,0,.066,5.753,4.78,4.78,0,0,0,2.321-.67v.527a4.97,4.97,0,0,1-2.309.614,3.317,3.317,0,0,1-3.469-3.337,3.356,3.356,0,0,1,3.419-3.356,5.57,5.57,0,0,1,2.294.544v.559" transform="translate(-943.282 -683.654)"/><rect class="d" width="0.505" height="6.518" transform="translate(91.131 44.515)"/><path class="d" d="M1054.283,734.819h-.42l-4.951-5.695v5.695h-.508V728.3h.431l4.942,5.7v-5.7h.507Z" transform="translate(-955.835 -683.786)"/><path class="d" d="M1070.709,729.213a4.568,4.568,0,0,0-2.313-.659,2.878,2.878,0,1,0,.143,5.753,3.674,3.674,0,0,0,1.786-.4v-1.754h-1.374v-.421h1.883v2.5a5.391,5.391,0,0,1-2.312.554,3.373,3.373,0,0,1-3.547-3.367,3.318,3.318,0,0,1,3.494-3.326,5.009,5.009,0,0,1,2.239.557v.572" transform="translate(-965.868 -683.654)"/><path class="d" d="M1093.665,729.048a2.723,2.723,0,0,0-1.465-.495,1.284,1.284,0,0,0-1.373,1.241c0,1.739,3.107.911,3.107,3.191a1.825,1.825,0,0,1-1.891,1.792,3.019,3.019,0,0,1-1.676-.577v-.59a2.686,2.686,0,0,0,1.643.7,1.322,1.322,0,0,0,1.377-1.3c0-1.854-3.108-1.042-3.108-3.192a1.8,1.8,0,0,1,1.873-1.731,3.1,3.1,0,0,1,1.512.414v.551" transform="translate(-981.187 -683.654)"/><path class="d" d="M1104.066,734.779a3.348,3.348,0,1,1,3.46-3.346,3.362,3.362,0,0,1-3.46,3.346m.022-6.223a2.877,2.877,0,1,0,2.893,2.876,2.857,2.857,0,0,0-2.893-2.876" transform="translate(-987.451 -683.656)"/><path class="d" d="M1125.366,729.186a4.77,4.77,0,0,0-2.317-.633,2.877,2.877,0,1,0,.064,5.753,4.782,4.782,0,0,0,2.323-.67v.527a4.972,4.972,0,0,1-2.313.614,3.32,3.32,0,0,1-3.47-3.337,3.363,3.363,0,0,1,3.427-3.356,5.559,5.559,0,0,1,2.287.544v.559" transform="translate(-998.97 -683.654)"/><rect class="d" width="0.506" height="6.518" transform="translate(127.432 44.515)"/><path class="d" d="M1143.979,728.723h-3.053v2.609h2.976v.419h-2.976V734.4h3.13v.421h-3.632V728.3h3.554Z" transform="translate(-1011.546 -683.786)"/><path class="d" d="M1156.837,728.723h-2.442v6.1h-.507v-6.1h-2.449V728.3h5.4Z" transform="translate(-1018.214 -683.786)"/><rect class="d" width="0.509" height="6.518" transform="translate(139.465 44.515)"/><path class="d" d="M1174.471,728.723h-3.048v2.609h2.974v.419h-2.974V734.4h3.124v.421h-3.632V728.3h3.556Z" transform="translate(-1030.005 -683.786)"/><path class="d" d="M1185.629,729.048a2.725,2.725,0,0,0-1.461-.495,1.288,1.288,0,0,0-1.378,1.241c0,1.739,3.106.911,3.106,3.191a1.826,1.826,0,0,1-1.893,1.792,3.023,3.023,0,0,1-1.673-.577v-.59a2.7,2.7,0,0,0,1.643.7,1.319,1.319,0,0,0,1.377-1.3c0-1.854-3.107-1.042-3.107-3.192a1.8,1.8,0,0,1,1.876-1.731,3.1,3.1,0,0,1,1.509.414v.551" transform="translate(-1036.865 -683.654)"/><path class="d" d="M1193.922,743.2a1.63,1.63,0,0,1-.622,1.319v-.333a1.235,1.235,0,0,0,.2-.785h-.2v-.927h.622v.726" transform="translate(-1043.558 -692.364)"/><path class="d" d="M1207.559,729.186a4.79,4.79,0,0,0-2.323-.633,2.877,2.877,0,1,0,.069,5.753,4.782,4.782,0,0,0,2.319-.67v.527a4.96,4.96,0,0,1-2.309.614,3.32,3.32,0,0,1-3.472-3.337,3.361,3.361,0,0,1,3.423-3.356,5.59,5.59,0,0,1,2.293.544v.559" transform="translate(-1048.731 -683.654)"/><path class="d" d="M1220.774,734.779a3.348,3.348,0,1,1,3.46-3.346,3.36,3.36,0,0,1-3.46,3.346m.021-6.223a2.877,2.877,0,1,0,2.892,2.876,2.858,2.858,0,0,0-2.892-2.876" transform="translate(-1058.109 -683.656)"/><path class="d" d="M1242.3,734.819h-.422l-4.954-5.695v5.695h-.5V728.3h.43l4.943,5.7v-5.7h.508Z" transform="translate(-1069.661 -683.786)"/><path class="d" d="M1259.6,734.819h-.425l-4.946-5.695v5.695h-.512V728.3h.434l4.942,5.7v-5.7h.508Z" transform="translate(-1080.135 -683.786)"/><path class="d" d="M1274.367,728.723h-3.049v2.609h2.972v.419h-2.972V734.4h3.124v.421h-3.63V728.3h3.554Z" transform="translate(-1090.486 -683.786)"/><path class="d" d="M1287.1,729.186a4.809,4.809,0,0,0-2.325-.633,2.877,2.877,0,1,0,.066,5.753,4.8,4.8,0,0,0,2.323-.67v.527a4.978,4.978,0,0,1-2.317.614,3.317,3.317,0,0,1-3.464-3.337,3.361,3.361,0,0,1,3.423-3.356,5.585,5.585,0,0,1,2.294.544v.559" transform="translate(-1096.886 -683.654)"/><path class="d" d="M1303.445,728.723H1301v6.1h-.5v-6.1h-2.449V728.3h5.4Z" transform="translate(-1106.973 -683.786)"/><rect class="d" width="0.511" height="6.518" transform="translate(197.252 44.515)"/><path class="d" d="M1322.991,734.819h-.42l-4.948-5.695v5.695h-.51V728.3h.429l4.944,5.7v-5.7h.506Z" transform="translate(-1118.517 -683.786)"/><path class="d" d="M1339.34,729.213a4.554,4.554,0,0,0-2.309-.659,2.878,2.878,0,1,0,.139,5.753,3.673,3.673,0,0,0,1.789-.4v-1.754h-1.375v-.421h1.885v2.5a5.415,5.415,0,0,1-2.321.554,3.371,3.371,0,0,1-3.54-3.367,3.32,3.32,0,0,1,3.5-3.326,4.978,4.978,0,0,1,2.232.557v.572" transform="translate(-1128.504 -683.654)"/><path class="d" d="M1360.484,728.3c1.527,0,2.13.784,2.13,1.724,0,.838-.489,1.746-2.181,1.746h-1.239v3.048h-.508V728.3h1.8m-1.29,3.05h1.211c1.216,0,1.661-.586,1.661-1.319,0-.708-.458-1.308-1.6-1.308h-1.268Z" transform="translate(-1143.686 -683.785)"/><path class="d" d="M1373.3,728.723h-3.046v2.609h2.975v.419h-2.975V734.4h3.12v.421h-3.63V728.3h3.555Z" transform="translate(-1150.38 -683.786)"/><path class="d" d="M1383.664,734.779a3.348,3.348,0,1,1,3.459-3.346,3.364,3.364,0,0,1-3.459,3.346m.017-6.223a2.877,2.877,0,1,0,2.894,2.876,2.856,2.856,0,0,0-2.894-2.876" transform="translate(-1156.724 -683.656)"/><path class="d" d="M1401.15,728.3c1.528,0,2.126.784,2.126,1.724,0,.838-.483,1.746-2.173,1.746h-1.242v3.048h-.512V728.3h1.8m-1.288,3.05h1.213c1.211,0,1.662-.586,1.662-1.319,0-.708-.461-1.308-1.6-1.308h-1.271Z" transform="translate(-1168.305 -683.785)"/><path class="d" d="M1411.112,734.4h3.226v.421h-3.731V728.3h.506Z" transform="translate(-1175.12 -683.786)"/><path class="d" d="M1425.094,728.723h-3.048v2.609h2.973v.419h-2.973V734.4h3.127v.421h-3.636V728.3h3.558Z" transform="translate(-1181.738 -683.786)"/><path class="ds" d="M953.2,661.069a25.154,25.154,0,0,0,4.51-1.631V673.5a5.176,5.176,0,0,0,.7,3.078,4.051,4.051,0,0,0,1.08.857H953.4a2.809,2.809,0,0,0,1.28-2.011,12.676,12.676,0,0,0,.182-2.342v-9.082c0-.075-.049-.414-.148-1.024a3.514,3.514,0,0,0-.228-.859,1.982,1.982,0,0,0-.464-.55,3.6,3.6,0,0,0-.825-.492" transform="translate(-898.193 -642.095)"/><path class="ds" d="M956.71,649.607a1.741,1.741,0,0,1,1.347.6,1.634,1.634,0,0,1,.438,1.149,1.7,1.7,0,0,1-.671,1.4,1.948,1.948,0,0,1-1.206.419,1.619,1.619,0,0,1-1.347-.657,1.837,1.837,0,0,1-.345-1.148,1.627,1.627,0,0,1,.582-1.31,1.786,1.786,0,0,1,1.2-.457" transform="translate(-899.24 -636.143)"/><path class="ds" d="M973.291,660.932a22.363,22.363,0,0,0,4.62-1.591l.018,2.76a9.456,9.456,0,0,1,6.5-2.97,5,5,0,0,1,3.892,1.5,5.11,5.11,0,0,1,1.239,3.285c.03.426.039.961.039,1.606v7.334l-.1,1.775a2.67,2.67,0,0,0,.941,2.1c.135.124.346.293.629.511h-5.945a2.861,2.861,0,0,0,1.148-1.1,2.478,2.478,0,0,0,.341-1.207l.037-.876.055-.35v-7.205a12.967,12.967,0,0,0-.254-3.247,3.179,3.179,0,0,0-3.3-2.37,6.908,6.908,0,0,0-4.185,1.442,4.008,4.008,0,0,0-.854.831v11.156a3.014,3.014,0,0,0,1.457,2.925H973.4a4.964,4.964,0,0,0,.876-.6q.932-.821.935-3.547v-8.577a7.135,7.135,0,0,0-.24-2.361,2.073,2.073,0,0,0-.987-.9c-.1-.046-.33-.156-.7-.326" transform="translate(-910.36 -641.909)"/><path class="ds" d="M1029.421,652.873l-.5,1.448h-5.143v10.459a11.526,11.526,0,0,0,.294,2.861,2.422,2.422,0,0,0,2.652,1.842,4.073,4.073,0,0,0,3.092-1.43l.3.253a6.113,6.113,0,0,1-5.054,2.936,3.76,3.76,0,0,1-3.547-1.845,7.916,7.916,0,0,1-.715-3.562c-.013-.6-.018-1.3-.018-2.118v-9.4h-2.232a23.927,23.927,0,0,0,5.23-5.77v4.321h5.639" transform="translate(-937.761 -635.504)"/><path class="ds" d="M1067.083,664.589h-14.035a10.526,10.526,0,0,0-.188,1.961,8.716,8.716,0,0,0,1.829,5.825,6.079,6.079,0,0,0,4.881,2.255q3.974,0,6.487-4.075l.366.255q-2.706,5.84-8.25,5.837a8.1,8.1,0,0,1-6.571-3.078,9.292,9.292,0,0,1-2.158-6.1,10.454,10.454,0,0,1,5.084-8.977,8.815,8.815,0,0,1,4.593-1.357,7.956,7.956,0,0,1,5.8,2.455,6.875,6.875,0,0,1,2.16,5m-3.348-.93a6.862,6.862,0,0,0-.458-2.215,5.26,5.26,0,0,0-2.066-2.526,4.752,4.752,0,0,0-2.693-.847q-2.469,0-4.169,2.7a7.861,7.861,0,0,0-1.117,2.894Z" transform="translate(-956.464 -640.7)"/><path class="ds" d="M1098.071,661.272l-.016-.236a14.669,14.669,0,0,0,4.4-1.883l.184.237.037,3.624q1.133-1.006,2.336-1.92a10.271,10.271,0,0,1,1.883-1.172,3.934,3.934,0,0,1,1.7-.363,2.122,2.122,0,0,1,1.611.529.646.646,0,0,1,.183.382.836.836,0,0,1-.2.4,3.23,3.23,0,0,1-.236.333,2.182,2.182,0,0,0-.124.183l-1.04,1.366a4.39,4.39,0,0,0-2.178-.865,5.617,5.617,0,0,0-2.943,1.358,3.251,3.251,0,0,0-.936.888,1.594,1.594,0,0,0-.052.558v9.035a2.517,2.517,0,0,0,.127.443q0,.034.09.8a3,3,0,0,0,1.793,2.283h-6.363a2.82,2.82,0,0,0,1.392-1.573,8.4,8.4,0,0,0,.162-1.992v-9.069c-.022-.855-.042-1.368-.054-1.539-.075-.9-.66-1.5-1.755-1.812" transform="translate(-985.895 -641.922)"/><path class="ds" d="M1133.986,660.932a22.33,22.33,0,0,0,4.617-1.591l.019,2.76a9.452,9.452,0,0,1,6.5-2.97,5.015,5.015,0,0,1,3.891,1.5,5.145,5.145,0,0,1,1.24,3.285c.024.426.039.961.039,1.606v7.334l-.1,1.775a2.663,2.663,0,0,0,.939,2.1c.135.124.345.293.626.511h-5.943a2.827,2.827,0,0,0,1.145-1.1,2.468,2.468,0,0,0,.348-1.207l.034-.876.055-.35v-7.205a12.691,12.691,0,0,0-.255-3.247,3.172,3.172,0,0,0-3.293-2.37,6.915,6.915,0,0,0-4.189,1.442,3.986,3.986,0,0,0-.853.831v11.156a3.017,3.017,0,0,0,1.457,2.925h-6.168a4.916,4.916,0,0,0,.879-.6q.936-.821.935-3.547v-8.577a7.125,7.125,0,0,0-.241-2.361,2.069,2.069,0,0,0-.988-.9c-.1-.046-.329-.156-.694-.326" transform="translate(-1007.648 -641.909)"/><path class="ds" d="M1187.742,662.73a11.458,11.458,0,0,1-1.821.81,3.883,3.883,0,0,1-1.068.286c-.212,0-.315-.2-.315-.6q0-1.817,2.155-3.419a8.719,8.719,0,0,1,5.352-1.726,5.748,5.748,0,0,1,3.908,1.274,3.9,3.9,0,0,1,1.386,2.368l.036,3.271v6.661a20.29,20.29,0,0,0,.162,3.364,2.613,2.613,0,0,0,1.206,1.588h-4.269l-.071-2.065a11.7,11.7,0,0,1-6.527,2.48,4.532,4.532,0,0,1-3.1-1.075,3.326,3.326,0,0,1-1.175-2.627,4.971,4.971,0,0,1,2.364-4.124q2.422-1.77,8.5-2.32v-3.122a7.162,7.162,0,0,0-.382-2.716,3.3,3.3,0,0,0-3.29-2.077,2.841,2.841,0,0,0-2.577,1.214,3.481,3.481,0,0,0-.529,1.891,5.526,5.526,0,0,0,.045.664m6.733,4.955a11.922,11.922,0,0,0-4.3.854,5.569,5.569,0,0,0-2.369,1.772,3.6,3.6,0,0,0-.784,2.2,3.012,3.012,0,0,0,3,3.007,5.949,5.949,0,0,0,2.564-.762,4.538,4.538,0,0,0,1.688-1.254,1.684,1.684,0,0,0,.2-.887Z" transform="translate(-1037.689 -641.274)"/><path class="ds" d="M1234.157,652.873l-.494,1.448h-5.143v10.459a11.4,11.4,0,0,0,.293,2.861,2.417,2.417,0,0,0,2.651,1.842,4.076,4.076,0,0,0,3.092-1.43l.294.253a6.112,6.112,0,0,1-5.051,2.936,3.76,3.76,0,0,1-3.548-1.845,7.933,7.933,0,0,1-.715-3.562q-.017-.9-.017-2.118v-9.4h-2.232a24.073,24.073,0,0,0,5.234-5.77v4.321h5.637" transform="translate(-1061.713 -635.504)"/><path class="ds" d="M1256.1,661.371a25.137,25.137,0,0,0,4.513-1.63v13.938a5.2,5.2,0,0,0,.7,3.078,4.049,4.049,0,0,0,1.08.857h-6.087a2.812,2.812,0,0,0,1.283-2.011,12.471,12.471,0,0,0,.182-2.342V664.3c0-.071-.051-.414-.146-1.024a3.541,3.541,0,0,0-.23-.858,2.053,2.053,0,0,0-.467-.552,3.673,3.673,0,0,0-.824-.493" transform="translate(-1081.581 -642.278)"/><path class="ds" d="M1259.623,649.607a1.74,1.74,0,0,1,1.347.6,1.64,1.64,0,0,1,.438,1.149,1.693,1.693,0,0,1-.675,1.4,1.923,1.923,0,0,1-1.2.419,1.621,1.621,0,0,1-1.349-.657,1.839,1.839,0,0,1-.345-1.148,1.633,1.633,0,0,1,.578-1.31,1.794,1.794,0,0,1,1.207-.457" transform="translate(-1082.631 -636.143)"/><path class="ds" d="M1283.108,658.995a9.023,9.023,0,0,1,7.027,3.057,8.93,8.93,0,0,1,2.378,6.151,9.255,9.255,0,0,1-2.671,6.568,9.082,9.082,0,0,1-10.849,1.887,9.234,9.234,0,0,1-4.157-4.086,9.842,9.842,0,0,1-1-4.519,8.715,8.715,0,0,1,2.708-6.459,8.981,8.981,0,0,1,6.568-2.6m-.427.779a4.758,4.758,0,0,0-4.123,2.549,9.778,9.778,0,0,0-1.31,5.319,10.389,10.389,0,0,0,1.877,6.508,5.793,5.793,0,0,0,4.684,2.5,4.717,4.717,0,0,0,4.21-2.621,9.7,9.7,0,0,0,1.077-4.9q0-4.712-2.367-7.353a5.318,5.318,0,0,0-4.048-2" transform="translate(-1092.314 -641.826)"/><path class="ds" d="M1323.729,660.932a22.322,22.322,0,0,0,4.617-1.591l.019,2.76a9.459,9.459,0,0,1,6.5-2.97,5,5,0,0,1,3.888,1.5,5.119,5.119,0,0,1,1.245,3.285q.037.639.037,1.606v7.334l-.1,1.775a2.663,2.663,0,0,0,.938,2.1c.138.124.347.293.629.511h-5.943a2.824,2.824,0,0,0,1.144-1.1,2.4,2.4,0,0,0,.346-1.207l.038-.876.052-.35v-7.205a12.855,12.855,0,0,0-.255-3.247,3.169,3.169,0,0,0-3.294-2.37,6.911,6.911,0,0,0-4.189,1.442,4.088,4.088,0,0,0-.852.831v11.156a3.014,3.014,0,0,0,1.458,2.925h-6.169a5.006,5.006,0,0,0,.879-.6q.932-.821.932-3.547v-8.577a7.1,7.1,0,0,0-.236-2.361,2.091,2.091,0,0,0-.987-.9c-.1-.046-.335-.156-.7-.326" transform="translate(-1122.523 -641.909)"/><path class="ds" d="M1377.482,662.73a11.257,11.257,0,0,1-1.823.81,3.8,3.8,0,0,1-1.068.286c-.206,0-.314-.2-.314-.6q0-1.817,2.16-3.419a8.709,8.709,0,0,1,5.346-1.726,5.732,5.732,0,0,1,3.907,1.274,3.865,3.865,0,0,1,1.387,2.368l.038,3.271v6.661a20.17,20.17,0,0,0,.164,3.364,2.608,2.608,0,0,0,1.209,1.588h-4.272l-.069-2.065a11.7,11.7,0,0,1-6.526,2.48,4.52,4.52,0,0,1-3.1-1.075,3.311,3.311,0,0,1-1.173-2.627,4.963,4.963,0,0,1,2.365-4.124q2.415-1.77,8.5-2.32v-3.122a7.14,7.14,0,0,0-.382-2.716,3.3,3.3,0,0,0-3.29-2.077,2.844,2.844,0,0,0-2.577,1.214,3.492,3.492,0,0,0-.53,1.891,5.325,5.325,0,0,0,.047.664m6.732,4.955a11.912,11.912,0,0,0-4.3.854,5.6,5.6,0,0,0-2.369,1.772,3.587,3.587,0,0,0-.783,2.2,3.01,3.01,0,0,0,3,3.007,5.934,5.934,0,0,0,2.56-.762,4.587,4.587,0,0,0,1.695-1.254,1.7,1.7,0,0,0,.2-.887Z" transform="translate(-1152.563 -641.274)"/><path class="ds" d="M1416.114,651.109a16.836,16.836,0,0,0,4.792-1.428c-.126,8.124-.189,6.756-.189,8.413q0,8.453.091,10.283a3.659,3.659,0,0,0,.98,2.579,5.012,5.012,0,0,0,.743.567h-6.2a2.644,2.644,0,0,0,1.146-1.241,7.294,7.294,0,0,0,.367-2.474c.117-5.193.182-5.282.182-12.782a7.283,7.283,0,0,0-.273-2.361,2.536,2.536,0,0,0-1.26-1.354,3.523,3.523,0,0,0-.38-.2" transform="translate(-1178.455 -636.188)"/><path class="d" d="M836.917,657.452h6.762c6.487,0,9.535,1.908,9.535,6.061,0,3.729-3.136,5.951-8.438,5.951h-2.195v6.453h-5.664V657.452m5.664,8.519h1.464c1.95,0,3.505-.605,3.505-2.541,0-1.875-1.555-2.483-3.505-2.483h-1.464Zm14.161-8.519h5.665v7.066h6.7v-7.066h5.667v18.466h-5.667v-7.91h-6.7v7.91h-5.665Z" transform="translate(-827.796 -640.892)"/><g class="dt"><path class="du" d="M1468.29,666.387c-1.65.128-3.264.325-4.8.588a37.858,37.858,0,0,0-4.745,1.1,21.178,21.178,0,0,0-4.519,1.893,7.434,7.434,0,0,0-3.124,3,3.7,3.7,0,0,0,.72,4.19c1.348,1.608,3.913,3.024,7.416,4.09a51.447,51.447,0,0,0,14.839,1.953,48.489,48.489,0,0,0,14.429-1.985c3.289-1.059,5.629-2.455,6.771-4.038a3.61,3.61,0,0,0,.288-4.111,8.392,8.392,0,0,0-3.283-2.944,23.055,23.055,0,0,0-4.565-1.9,40.164,40.164,0,0,0-4.748-1.136c-1.53-.276-3.141-.491-4.789-.634-1.615-.146-3.281-.221-4.946-.231s-3.334.049-4.95.17m-.729,13.463a41.36,41.36,0,0,1-5.511-1.017,23.862,23.862,0,0,1-4.123-1.466,10.548,10.548,0,0,1-2.587-1.665,3.983,3.983,0,0,1-1.114-1.576,2.074,2.074,0,0,1-.022-1.3,3.251,3.251,0,0,1,.747-1.232,6.935,6.935,0,0,1,1.36-1.118,12.683,12.683,0,0,1,1.736-.933,19.482,19.482,0,0,1,1.951-.748c.649-.213,1.35-.413,2.084-.591.7-.17,1.438-.326,2.2-.463.723-.128,1.474-.241,2.236-.337.724-.088,1.475-.166,2.225-.228.731-.056,1.484-.1,2.232-.125s1.513-.037,2.276-.032,1.523.024,2.268.061,1.5.086,2.231.149c.752.067,1.5.151,2.228.251.761.1,1.51.226,2.238.361.764.143,1.508.3,2.206.482.736.183,1.446.385,2.1.6a21.066,21.066,0,0,1,1.969.757,14.114,14.114,0,0,1,1.78.934,8.134,8.134,0,0,1,1.429,1.115,3.819,3.819,0,0,1,.858,1.233,2.071,2.071,0,0,1,.109,1.284,3.329,3.329,0,0,1-.9,1.519,8.9,8.9,0,0,1-2.324,1.627,20.509,20.509,0,0,1-3.865,1.437,36.833,36.833,0,0,1-5.307,1.016,52.761,52.761,0,0,1-6.318.378,54.622,54.622,0,0,1-6.395-.367m3.6-13.069c-.695.027-1.393.066-2.067.123-.69.054-1.377.129-2.043.217-.691.09-1.379.2-2.032.323-.695.13-1.359.277-1.979.436-.656.168-1.274.356-1.845.553a15.643,15.643,0,0,0-1.677.7,9.676,9.676,0,0,0-1.453.864,5.061,5.061,0,0,0-1.09,1.054,2.749,2.749,0,0,0-.537,1.3,2.475,2.475,0,0,0,.312,1.482,4.679,4.679,0,0,0,1.322,1.431,11.427,11.427,0,0,0,2.445,1.348,23.476,23.476,0,0,0,3.577,1.124,37.635,37.635,0,0,0,4.566.764,48.839,48.839,0,0,0,10.328,0,35.45,35.45,0,0,0,4.42-.757,20.508,20.508,0,0,0,3.388-1.109,9.646,9.646,0,0,0,2.251-1.324,4,4,0,0,0,1.154-1.426,2.368,2.368,0,0,0,.157-1.471,2.975,2.975,0,0,0-.637-1.258,5.7,5.7,0,0,0-1.157-1.039,10.514,10.514,0,0,0-1.494-.864,16.556,16.556,0,0,0-1.706-.7c-.579-.208-1.206-.4-1.863-.57-.625-.164-1.295-.317-1.984-.451-.662-.13-1.348-.247-2.042-.345-.665-.093-1.353-.172-2.047-.236-.676-.064-1.37-.112-2.065-.146s-1.4-.052-2.1-.056-1.412.008-2.1.032m2.607,9.808c-1.409,0-2.8-.072-4.139-.2a33.98,33.98,0,0,1-3.685-.563,21.942,21.942,0,0,1-2.974-.843,11,11,0,0,1-2.116-1.014,4.473,4.473,0,0,1-1.2-1.036,1.681,1.681,0,0,1-.373-.876,1.373,1.373,0,0,1,.191-.776,2.93,2.93,0,0,1,.7-.806,6.454,6.454,0,0,1,1.095-.73,11.031,11.031,0,0,1,1.363-.61c.475-.18,1-.347,1.557-.5.533-.146,1.11-.282,1.712-.4.576-.115,1.181-.217,1.8-.3.59-.083,1.2-.15,1.825-.205.607-.049,1.231-.089,1.854-.112s1.266-.036,1.9-.032,1.27.021,1.9.054,1.255.074,1.859.133c.624.059,1.24.134,1.832.221.615.092,1.225.2,1.806.315.6.124,1.187.265,1.727.412.562.159,1.094.33,1.579.51a12.712,12.712,0,0,1,1.4.618,7.225,7.225,0,0,1,1.145.733,3.408,3.408,0,0,1,.765.816,1.5,1.5,0,0,1,.275.785,1.444,1.444,0,0,1-.264.834,3.676,3.676,0,0,1-1.052,1.006,9.4,9.4,0,0,1-1.958.994,19.179,19.179,0,0,1-2.835.824,31.806,31.806,0,0,1-3.584.554c-1.32.13-2.7.2-4.1.2m-2.179-9.19c-.562.022-1.122.058-1.661.106s-1.1.116-1.618.189c-.546.079-1.077.171-1.581.275-.527.112-1.027.237-1.489.37a13.643,13.643,0,0,0-1.326.454,8.491,8.491,0,0,0-1.135.558,4.4,4.4,0,0,0-.895.677,2.365,2.365,0,0,0-.563.835,1.649,1.649,0,0,0-.054,1.02,2.24,2.24,0,0,0,.581.964,5.04,5.04,0,0,0,1.212.886,11.267,11.267,0,0,0,1.879.8,20.021,20.021,0,0,0,2.482.641c.936.182,1.935.323,2.981.423,1.07.1,2.179.147,3.294.148s2.212-.045,3.269-.141a27.4,27.4,0,0,0,2.909-.41,18.448,18.448,0,0,0,2.388-.623,10.354,10.354,0,0,0,1.768-.783,4.54,4.54,0,0,0,1.106-.88,2.034,2.034,0,0,0,.478-.979,1.666,1.666,0,0,0-.152-1,2.535,2.535,0,0,0-.621-.812,5.128,5.128,0,0,0-.939-.673,9.292,9.292,0,0,0-1.164-.561,14.21,14.21,0,0,0-1.351-.463c-.469-.138-.97-.266-1.5-.38-.51-.109-1.046-.205-1.591-.291-.529-.082-1.074-.15-1.629-.205s-1.106-.1-1.665-.126-1.133-.044-1.706-.047-1.143.006-1.705.031m2.049,6.625c-.855,0-1.707-.038-2.526-.109s-1.584-.169-2.31-.3a18.578,18.578,0,0,1-1.962-.466,10.318,10.318,0,0,1-1.522-.58,4.81,4.81,0,0,1-1-.629,1.728,1.728,0,0,1-.47-.578.656.656,0,0,1-.056-.426,1.065,1.065,0,0,1,.244-.476,2.751,2.751,0,0,1,.584-.511,5.885,5.885,0,0,1,.844-.451,9.241,9.241,0,0,1,1.046-.389c.372-.114.786-.22,1.216-.317s.863-.176,1.322-.244.905-.125,1.377-.168.942-.077,1.422-.1.978-.029,1.471-.026.984.016,1.468.043.956.063,1.428.109.938.113,1.387.182.906.164,1.332.258.854.211,1.237.329a10.842,10.842,0,0,1,1.07.395,6.286,6.286,0,0,1,.881.46,3.338,3.338,0,0,1,.633.514,1.3,1.3,0,0,1,.3.5.652.652,0,0,1-.009.417,1.456,1.456,0,0,1-.393.544,3.993,3.993,0,0,1-.917.614,9.189,9.189,0,0,1-1.437.57,17.013,17.013,0,0,1-1.89.449c-.71.126-1.469.225-2.263.291-.812.069-1.656.1-2.506.1m-12.812-18.465c-1.151.09-2.271.227-3.331.408a26.962,26.962,0,0,0-3.3.766,14.913,14.913,0,0,0-3.138,1.314,5.2,5.2,0,0,0-2.167,2.083,2.563,2.563,0,0,0,.5,2.909,10.924,10.924,0,0,0,5.149,2.843,35.9,35.9,0,0,0,10.308,1.357,33.728,33.728,0,0,0,10.024-1.382,9.267,9.267,0,0,0,4.7-2.8,2.514,2.514,0,0,0,.2-2.856,5.829,5.829,0,0,0-2.281-2.043,16.1,16.1,0,0,0-3.17-1.322,28.263,28.263,0,0,0-3.3-.792c-1.064-.194-2.184-.337-3.327-.44-1.121-.1-2.276-.149-3.436-.158s-2.317.034-3.436.116m-.508,9.354a28.14,28.14,0,0,1-3.827-.71,15.889,15.889,0,0,1-2.864-1.015,7.231,7.231,0,0,1-1.8-1.156,2.7,2.7,0,0,1-.777-1.094,1.446,1.446,0,0,1-.018-.909,2.378,2.378,0,0,1,.52-.856,5,5,0,0,1,.945-.777,9.287,9.287,0,0,1,1.207-.648,14.2,14.2,0,0,1,1.353-.518c.452-.149.94-.287,1.45-.413.486-.116,1-.226,1.526-.318.507-.092,1.032-.17,1.556-.235.508-.066,1.025-.117,1.547-.158s1.033-.07,1.549-.089,1.049-.026,1.579-.021,1.058.017,1.576.041,1.045.061,1.555.106,1.04.1,1.546.172c.527.072,1.051.157,1.555.251.528.1,1.046.211,1.533.335.509.128,1,.268,1.458.419a14.368,14.368,0,0,1,1.368.526,9.68,9.68,0,0,1,1.236.65,5.589,5.589,0,0,1,1,.775,2.605,2.605,0,0,1,.593.854,1.447,1.447,0,0,1,.079.89,2.309,2.309,0,0,1-.63,1.056,6.2,6.2,0,0,1-1.614,1.131,14.225,14.225,0,0,1-2.687,1,26.1,26.1,0,0,1-3.685.7,36.412,36.412,0,0,1-4.387.261,37.589,37.589,0,0,1-4.441-.254m2.5-9.079c-.485.019-.968.048-1.434.084s-.956.093-1.419.151c-.482.064-.958.139-1.413.224-.48.092-.941.193-1.375.3-.451.118-.883.248-1.282.387a10.348,10.348,0,0,0-1.164.482,6.856,6.856,0,0,0-1.01.6,3.544,3.544,0,0,0-.755.732,1.885,1.885,0,0,0-.373.9,1.736,1.736,0,0,0,.217,1.029,3.211,3.211,0,0,0,.917,1,7.84,7.84,0,0,0,1.7.934,16.145,16.145,0,0,0,2.48.783,26.682,26.682,0,0,0,3.173.53,34.037,34.037,0,0,0,3.6.189,32.739,32.739,0,0,0,3.567-.189,24.624,24.624,0,0,0,3.073-.522,14.349,14.349,0,0,0,2.358-.773,6.573,6.573,0,0,0,1.558-.919,2.762,2.762,0,0,0,.8-.989,1.662,1.662,0,0,0,.109-1.023,2.113,2.113,0,0,0-.444-.874,3.986,3.986,0,0,0-.8-.721,7.108,7.108,0,0,0-1.038-.6,12.014,12.014,0,0,0-1.185-.486c-.4-.141-.835-.275-1.3-.394-.434-.115-.9-.22-1.377-.312-.458-.092-.936-.172-1.417-.24-.462-.065-.941-.123-1.422-.167s-.953-.078-1.436-.1-.969-.035-1.458-.04-.984,0-1.462.021m1.812,6.813c-.979,0-1.942-.048-2.874-.142a22.934,22.934,0,0,1-2.56-.392,15.155,15.155,0,0,1-2.066-.582,7.848,7.848,0,0,1-1.47-.706,3.2,3.2,0,0,1-.832-.721,1.168,1.168,0,0,1-.259-.61.942.942,0,0,1,.131-.535,1.981,1.981,0,0,1,.487-.56,4.04,4.04,0,0,1,.76-.507,7.323,7.323,0,0,1,.943-.424c.332-.125.7-.241,1.086-.347.368-.1.767-.2,1.187-.278.4-.08.82-.147,1.248-.207.412-.056.839-.105,1.267-.14s.855-.064,1.289-.081.879-.023,1.319-.023.883.016,1.32.038.87.053,1.292.094.859.094,1.272.152c.428.065.851.136,1.253.223q.634.129,1.2.286c.389.109.76.226,1.1.354a9.22,9.22,0,0,1,.969.428,4.917,4.917,0,0,1,.792.51,2.425,2.425,0,0,1,.539.564,1.1,1.1,0,0,1,.187.545,1.028,1.028,0,0,1-.185.58,2.577,2.577,0,0,1-.733.7,6.715,6.715,0,0,1-1.357.689,13.921,13.921,0,0,1-1.969.572,21.964,21.964,0,0,1-2.492.385c-.917.09-1.87.136-2.844.135m-1.512-6.382c-.392.014-.78.039-1.156.074s-.762.079-1.126.132-.746.118-1.1.191-.716.163-1.033.255a9.165,9.165,0,0,0-.919.317,6.021,6.021,0,0,0-.791.386,3.139,3.139,0,0,0-.621.471,1.686,1.686,0,0,0-.392.577,1.159,1.159,0,0,0-.036.711,1.559,1.559,0,0,0,.4.671,3.5,3.5,0,0,0,.842.616,8,8,0,0,0,1.3.551,13.418,13.418,0,0,0,1.726.445c.65.126,1.346.226,2.073.294s1.513.1,2.287.1,1.537-.033,2.268-.1a19.022,19.022,0,0,0,2.021-.283,12.672,12.672,0,0,0,1.656-.434,6.9,6.9,0,0,0,1.229-.546,2.945,2.945,0,0,0,.768-.608,1.389,1.389,0,0,0,.335-.682,1.191,1.191,0,0,0-.1-.695,1.783,1.783,0,0,0-.432-.561,3.576,3.576,0,0,0-.651-.47,6.732,6.732,0,0,0-.812-.39c-.282-.115-.6-.221-.938-.322s-.675-.185-1.042-.264-.729-.143-1.106-.2-.747-.1-1.132-.141-.766-.066-1.156-.09-.786-.026-1.185-.029-.8.007-1.183.021m1.42,4.6c-.593,0-1.184-.026-1.754-.076s-1.1-.119-1.6-.208a13,13,0,0,1-1.361-.322,7.159,7.159,0,0,1-1.058-.4,3.339,3.339,0,0,1-.7-.438,1.181,1.181,0,0,1-.327-.4.459.459,0,0,1-.04-.3.688.688,0,0,1,.172-.329,1.767,1.767,0,0,1,.4-.354,3.952,3.952,0,0,1,.585-.315,6.962,6.962,0,0,1,.729-.27c.26-.079.542-.155.845-.221s.6-.118.917-.167.627-.087.953-.12.658-.051.99-.067.677-.021,1.022-.017.685.009,1.019.029.667.043.994.078.652.075.961.125.631.111.928.177.592.146.86.229a7.689,7.689,0,0,1,.742.274,4.379,4.379,0,0,1,.614.319,2.222,2.222,0,0,1,.437.36.963.963,0,0,1,.211.343.462.462,0,0,1-.005.288,1.073,1.073,0,0,1-.274.38,2.719,2.719,0,0,1-.637.424,6.183,6.183,0,0,1-1,.395,11.013,11.013,0,0,1-1.313.314c-.49.09-1.02.156-1.57.2-.565.046-1.149.069-1.743.069m20.164-9.034c-.913.071-1.8.178-2.647.323a21.746,21.746,0,0,0-2.62.608,11.814,11.814,0,0,0-2.5,1.045,4.077,4.077,0,0,0-1.72,1.654,2.038,2.038,0,0,0,.395,2.311,8.688,8.688,0,0,0,4.094,2.259,28.54,28.54,0,0,0,8.19,1.078,26.846,26.846,0,0,0,7.967-1.1,7.387,7.387,0,0,0,3.734-2.226,2,2,0,0,0,.161-2.271,4.635,4.635,0,0,0-1.815-1.622,12.545,12.545,0,0,0-2.519-1.049,21.669,21.669,0,0,0-2.621-.63c-.846-.15-1.734-.271-2.64-.352s-1.811-.12-2.732-.124-1.843.026-2.732.094m-.406,7.429a22.688,22.688,0,0,1-3.036-.56,12.878,12.878,0,0,1-2.278-.808,5.809,5.809,0,0,1-1.427-.921,2.171,2.171,0,0,1-.616-.87,1.125,1.125,0,0,1-.014-.72,1.847,1.847,0,0,1,.414-.682,3.782,3.782,0,0,1,.751-.616,6.91,6.91,0,0,1,.955-.516,11.344,11.344,0,0,1,1.073-.412c.362-.118.749-.227,1.156-.326.384-.092.793-.179,1.215-.256.4-.071.815-.134,1.233-.187s.815-.092,1.231-.124.819-.057,1.232-.07.832-.021,1.252-.019.844.015,1.255.032.83.049,1.235.086.824.083,1.223.135c.42.059.838.126,1.241.2.422.079.832.167,1.217.266.4.1.8.213,1.159.334a11.54,11.54,0,0,1,1.086.416,7.772,7.772,0,0,1,.983.515,4.435,4.435,0,0,1,.786.614,2.1,2.1,0,0,1,.475.682,1.178,1.178,0,0,1,.061.707,1.834,1.834,0,0,1-.5.84,4.887,4.887,0,0,1-1.283.9,11.491,11.491,0,0,1-2.135.8,20.743,20.743,0,0,1-2.93.558,30.124,30.124,0,0,1-7.017,0m1.993-7.212c-.384.016-.767.039-1.139.069s-.761.07-1.127.119c-.386.05-.761.109-1.127.177s-.747.156-1.09.242c-.36.093-.7.2-1.015.306a8.488,8.488,0,0,0-.928.384,5.209,5.209,0,0,0-.8.477,2.983,2.983,0,0,0-.6.582,1.5,1.5,0,0,0-.294.717,1.321,1.321,0,0,0,.173.815,2.526,2.526,0,0,0,.728.791,6.328,6.328,0,0,0,1.351.745,12.7,12.7,0,0,0,1.972.62,20.564,20.564,0,0,0,2.519.423,27.268,27.268,0,0,0,2.868.15,26.628,26.628,0,0,0,2.834-.15,19.737,19.737,0,0,0,2.441-.417,11.122,11.122,0,0,0,1.868-.613,5.46,5.46,0,0,0,1.247-.729,2.206,2.206,0,0,0,.631-.789,1.274,1.274,0,0,0,.088-.812,1.652,1.652,0,0,0-.351-.693,3.248,3.248,0,0,0-.639-.575,5.609,5.609,0,0,0-.825-.475,8.872,8.872,0,0,0-.942-.385c-.317-.113-.665-.218-1.024-.315s-.716-.176-1.1-.25c-.365-.072-.745-.135-1.126-.189s-.748-.1-1.13-.129-.758-.062-1.138-.08-.774-.033-1.163-.034-.782,0-1.16.019m1.439,5.414c-.777,0-1.546-.039-2.285-.113a18.313,18.313,0,0,1-2.036-.311,12.039,12.039,0,0,1-1.638-.465,6.239,6.239,0,0,1-1.172-.557,2.59,2.59,0,0,1-.657-.573.913.913,0,0,1-.206-.485.738.738,0,0,1,.1-.426,1.658,1.658,0,0,1,.385-.447,3.39,3.39,0,0,1,.6-.4,7.1,7.1,0,0,1,.753-.337c.262-.1.552-.191.86-.276s.611-.151.943-.217.653-.12.993-.165.663-.087,1.006-.115.682-.049,1.027-.061.7-.021,1.052-.016.7.011,1.045.026.692.043,1.027.075.681.075,1.009.124.678.107,1,.172.657.148.951.23c.313.085.605.18.875.28a6.589,6.589,0,0,1,.769.344,3.671,3.671,0,0,1,.63.4,2.088,2.088,0,0,1,.429.448.874.874,0,0,1,.147.435.825.825,0,0,1-.147.461,2.031,2.031,0,0,1-.577.556,5.291,5.291,0,0,1-1.085.545,10.235,10.235,0,0,1-1.561.456,17.392,17.392,0,0,1-1.979.306c-.725.071-1.49.107-2.262.107m-1.2-5.071c-.308.011-.62.032-.919.056s-.6.066-.892.107-.594.094-.873.151-.566.129-.82.2a7.4,7.4,0,0,0-.73.252,4.637,4.637,0,0,0-.626.307,2.443,2.443,0,0,0-.5.374,1.275,1.275,0,0,0-.309.461.908.908,0,0,0-.03.562,1.249,1.249,0,0,0,.321.533,2.741,2.741,0,0,0,.668.489,6.2,6.2,0,0,0,1.039.44,10.87,10.87,0,0,0,1.369.354c.515.1,1.066.18,1.642.231.593.055,1.2.081,1.823.083s1.218-.026,1.8-.078a14.936,14.936,0,0,0,1.606-.225,10.351,10.351,0,0,0,1.314-.345,5.562,5.562,0,0,0,.976-.434,2.279,2.279,0,0,0,.613-.486,1.084,1.084,0,0,0,.264-.539.915.915,0,0,0-.081-.552,1.49,1.49,0,0,0-.343-.45,2.75,2.75,0,0,0-.517-.37,5.508,5.508,0,0,0-.643-.311c-.229-.09-.479-.176-.747-.256s-.54-.146-.828-.209-.58-.114-.883-.162c-.288-.043-.59-.082-.9-.113s-.608-.052-.917-.067-.625-.026-.94-.027-.632,0-.943.018m1.131,3.656c-.47,0-.939-.021-1.393-.06s-.875-.094-1.276-.167a10.589,10.589,0,0,1-1.083-.255,5.819,5.819,0,0,1-.84-.322,2.471,2.471,0,0,1-.553-.347.941.941,0,0,1-.262-.317.361.361,0,0,1-.031-.236.612.612,0,0,1,.134-.264,1.647,1.647,0,0,1,.326-.279,2.862,2.862,0,0,1,.463-.251,5.273,5.273,0,0,1,.578-.216c.207-.062.433-.123.674-.173s.477-.1.731-.133.5-.072.761-.1.515-.042.781-.054.539-.015.808-.014.548.007.815.023.528.033.788.063.518.06.76.1.5.088.74.142.47.116.68.181a4.866,4.866,0,0,1,.593.219,3.109,3.109,0,0,1,.485.253,1.6,1.6,0,0,1,.351.282.789.789,0,0,1,.168.277.351.351,0,0,1-.008.229.794.794,0,0,1-.214.3,2.327,2.327,0,0,1-.508.337,4.82,4.82,0,0,1-.795.313,8.845,8.845,0,0,1-1.041.251c-.392.068-.808.121-1.248.159s-.915.054-1.384.054" transform="translate(-1198.148 -637.434)"/></g></g></g></g></svg>